<?xml version="1.0" encoding="UTF-8"?><svg id="a" xmlns="http://www.w3.org/2000/svg" viewBox="0 0 360 172.32"><g id="b"><path d="M19.55,19.51h-2.66l-.46-3.05h-3.24l-.46,3.05h-2.42L13,2.71h3.86l2.69,16.8Zm-6.02-5.33h2.54l-1.25-8.5h-.05l-1.25,8.5Z"/><path d="M29.56,7.34h-.05v12.17h-2.38V2.71h3.31l2.66,10.06h.05V2.71h2.35V19.51h-2.71l-3.24-12.17Z"/><path d="M39.92,9.79h3.62v2.4h-3.62v4.92h4.56v2.4h-7.2V2.71h7.2v2.4h-4.56v4.68Z"/><path d="M51.88,10.56h-.05l-.94,8.95h-3.62l-1.87-16.8h2.57l1.39,13.25h.05l1.25-13.25h2.54l1.3,13.34h.05l1.34-13.34h2.3l-1.87,16.8h-3.5l-.94-8.95Z"/><path d="M69.44,2.52c2.57,0,3.89,1.54,3.89,4.22v.53h-2.5v-.7c0-1.2-.48-1.66-1.32-1.66s-1.32,.46-1.32,1.66,.53,2.14,2.26,3.65c2.21,1.94,2.9,3.34,2.9,5.26,0,2.69-1.34,4.22-3.94,4.22s-3.94-1.54-3.94-4.22v-1.03h2.5v1.2c0,1.2,.53,1.63,1.37,1.63s1.37-.43,1.37-1.63-.53-2.14-2.26-3.65c-2.21-1.94-2.9-3.34-2.9-5.26,0-2.69,1.32-4.22,3.89-4.22Z"/><path d="M74.53,6.74c0-2.69,1.42-4.22,4.01-4.22s4.01,1.54,4.01,4.22V15.48c0,2.69-1.42,4.22-4.01,4.22s-4.01-1.54-4.01-4.22V6.74Zm2.64,8.9c0,1.2,.53,1.66,1.37,1.66s1.37-.46,1.37-1.66V6.58c0-1.2-.53-1.66-1.37-1.66s-1.37,.46-1.37,1.66V15.65Z"/><path d="M91.79,13.25v2.23c0,2.69-1.34,4.22-3.94,4.22s-3.94-1.54-3.94-4.22V6.74c0-2.69,1.34-4.22,3.94-4.22s3.94,1.54,3.94,4.22v1.63h-2.5v-1.8c0-1.2-.53-1.66-1.37-1.66s-1.37,.46-1.37,1.66V15.65c0,1.2,.53,1.63,1.37,1.63s1.37-.43,1.37-1.63v-2.4h2.5Z"/><path d="M93.27,2.71h2.64V19.51h-2.64V2.71Z"/><path d="M106.26,19.51h-2.66l-.46-3.05h-3.24l-.46,3.05h-2.42l2.69-16.8h3.86l2.69,16.8Zm-6.02-5.33h2.54l-1.25-8.5h-.05l-1.25,8.5Z"/><path d="M107.36,2.71h2.64v14.4h4.34v2.4h-6.98V2.71Z"/><path d="M130.43,19.51h-2.66l-.46-3.05h-3.24l-.46,3.05h-2.42l2.69-16.8h3.86l2.69,16.8Zm-6.02-5.33h2.54l-1.25-8.5h-.05l-1.25,8.5Z"/><path d="M137.05,19.51c-.14-.43-.24-.7-.24-2.06v-2.64c0-1.56-.53-2.14-1.73-2.14h-.91v6.84h-2.64V2.71h3.98c2.74,0,3.91,1.27,3.91,3.86v1.32c0,1.73-.55,2.83-1.73,3.38v.05c1.32,.55,1.75,1.8,1.75,3.55v2.59c0,.82,.02,1.42,.29,2.04h-2.69Zm-2.88-14.4v5.16h1.03c.98,0,1.58-.43,1.58-1.78v-1.66c0-1.2-.41-1.73-1.34-1.73h-1.27Z"/><path d="M140.29,2.71h8.16v2.4h-2.76v14.4h-2.64V5.11h-2.76V2.71Z"/><path d="M163.64,13.25v2.23c0,2.69-1.34,4.22-3.94,4.22s-3.94-1.54-3.94-4.22V6.74c0-2.69,1.34-4.22,3.94-4.22s3.94,1.54,3.94,4.22v1.63h-2.5v-1.8c0-1.2-.53-1.66-1.37-1.66s-1.37,.46-1.37,1.66V15.65c0,1.2,.53,1.63,1.37,1.63s1.37-.43,1.37-1.63v-2.4h2.5Z"/><path d="M165.13,2.71h2.64v14.4h4.34v2.4h-6.98V2.71Z"/><path d="M175.66,2.71V15.67c0,1.2,.53,1.63,1.37,1.63s1.37-.43,1.37-1.63V2.71h2.5V15.5c0,2.69-1.34,4.22-3.94,4.22s-3.94-1.54-3.94-4.22V2.71h2.64Z"/><path d="M190.47,6.58v.6c0,1.73-.53,2.81-1.7,3.36v.05c1.42,.55,1.97,1.8,1.97,3.58v1.37c0,2.59-1.37,3.98-4.01,3.98h-4.15V2.71h3.98c2.74,0,3.91,1.27,3.91,3.86Zm-5.26-1.46v4.44h1.03c.98,0,1.58-.43,1.58-1.78v-.94c0-1.2-.41-1.73-1.34-1.73h-1.27Zm0,6.84v5.16h1.51c.89,0,1.37-.41,1.37-1.66v-1.46c0-1.56-.5-2.04-1.7-2.04h-1.18Z"/><path d="M206.53,6.86v2.18c0,2.69-1.3,4.15-3.94,4.15h-1.25v6.31h-2.64V2.71h3.89c2.64,0,3.94,1.46,3.94,4.15Zm-5.18-1.75v5.69h1.25c.84,0,1.3-.38,1.3-1.58v-2.52c0-1.2-.46-1.58-1.3-1.58h-1.25Z"/><path d="M207.42,6.74c0-2.69,1.42-4.22,4.01-4.22s4.01,1.54,4.01,4.22V15.48c0,2.69-1.42,4.22-4.01,4.22s-4.01-1.54-4.01-4.22V6.74Zm2.64,8.9c0,1.2,.53,1.66,1.37,1.66s1.37-.46,1.37-1.66V6.58c0-1.2-.53-1.66-1.37-1.66s-1.37,.46-1.37,1.66V15.65Z"/><path d="M222.9,10.56h-.05l-.94,8.95h-3.62l-1.87-16.8h2.57l1.39,13.25h.05l1.25-13.25h2.54l1.3,13.34h.05l1.34-13.34h2.3l-1.87,16.8h-3.5l-.94-8.95Z"/><path d="M233.05,9.79h3.62v2.4h-3.62v4.92h4.56v2.4h-7.2V2.71h7.2v2.4h-4.56v4.68Z"/><path d="M244.64,19.51c-.14-.43-.24-.7-.24-2.06v-2.64c0-1.56-.53-2.14-1.73-2.14h-.91v6.84h-2.64V2.71h3.98c2.74,0,3.91,1.27,3.91,3.86v1.32c0,1.73-.55,2.83-1.73,3.38v.05c1.32,.55,1.75,1.8,1.75,3.55v2.59c0,.82,.02,1.42,.29,2.04h-2.69Zm-2.88-14.4v5.16h1.03c.98,0,1.58-.43,1.58-1.78v-1.66c0-1.2-.41-1.73-1.34-1.73h-1.27Z"/><path d="M251.29,9.79h3.62v2.4h-3.62v4.92h4.56v2.4h-7.2V2.71h7.2v2.4h-4.56v4.68Z"/><path d="M257.36,2.71h4.18c2.64,0,3.94,1.46,3.94,4.15V15.36c0,2.69-1.3,4.15-3.94,4.15h-4.18V2.71Zm2.64,2.4v12h1.49c.84,0,1.34-.43,1.34-1.63V6.74c0-1.2-.5-1.63-1.34-1.63h-1.49Z"/><path d="M281.43,6.58v.6c0,1.73-.53,2.81-1.7,3.36v.05c1.42,.55,1.97,1.8,1.97,3.58v1.37c0,2.59-1.37,3.98-4.01,3.98h-4.15V2.71h3.98c2.74,0,3.91,1.27,3.91,3.86Zm-5.26-1.46v4.44h1.03c.98,0,1.58-.43,1.58-1.78v-.94c0-1.2-.41-1.73-1.34-1.73h-1.27Zm0,6.84v5.16h1.51c.89,0,1.37-.41,1.37-1.66v-1.46c0-1.56-.5-2.04-1.7-2.04h-1.18Z"/><path d="M285.27,13.94l-3.34-11.23h2.76l1.99,7.66h.05l1.99-7.66h2.52l-3.34,11.23v5.57h-2.64v-5.57Z"/><path d="M306.58,6.58v.6c0,1.73-.53,2.81-1.7,3.36v.05c1.42,.55,1.97,1.8,1.97,3.58v1.37c0,2.59-1.37,3.98-4.01,3.98h-4.15V2.71h3.98c2.74,0,3.91,1.27,3.91,3.86Zm-5.26-1.46v4.44h1.03c.98,0,1.58-.43,1.58-1.78v-.94c0-1.2-.41-1.73-1.34-1.73h-1.27Zm0,6.84v5.16h1.51c.89,0,1.37-.41,1.37-1.66v-1.46c0-1.56-.5-2.04-1.7-2.04h-1.18Z"/><path d="M308.31,2.71h2.64v14.4h4.34v2.4h-6.98V2.71Z"/><path d="M316.11,6.74c0-2.69,1.42-4.22,4.01-4.22s4.01,1.54,4.01,4.22V15.48c0,2.69-1.42,4.22-4.01,4.22s-4.01-1.54-4.01-4.22V6.74Zm2.64,8.9c0,1.2,.53,1.66,1.37,1.66s1.37-.46,1.37-1.66V6.58c0-1.2-.53-1.66-1.37-1.66s-1.37,.46-1.37,1.66V15.65Z"/><path d="M333.37,13.25v2.23c0,2.69-1.34,4.22-3.94,4.22s-3.94-1.54-3.94-4.22V6.74c0-2.69,1.34-4.22,3.94-4.22s3.94,1.54,3.94,4.22v1.63h-2.5v-1.8c0-1.2-.53-1.66-1.37-1.66s-1.37,.46-1.37,1.66V15.65c0,1.2,.53,1.63,1.37,1.63s1.37-.43,1.37-1.63v-2.4h2.5Z"/><path d="M338.31,12.82l-.82,1.54v5.16h-2.64V2.71h2.64v7.27h.05l3.41-7.27h2.64l-3.67,7.49,3.67,9.31h-2.71l-2.57-6.7Z"/><path d="M344.55,9.91h4.8v2.4h-4.8v-2.4Z"/><path d="M18.66,37.25v2.23c0,2.69-1.34,4.22-3.94,4.22s-3.94-1.54-3.94-4.22v-8.74c0-2.69,1.34-4.22,3.94-4.22s3.94,1.54,3.94,4.22v1.63h-2.5v-1.8c0-1.2-.53-1.66-1.37-1.66s-1.37,.46-1.37,1.66v9.07c0,1.2,.53,1.63,1.37,1.63s1.37-.43,1.37-1.63v-2.4h2.5Z"/><path d="M22.79,43.51h-2.64V26.71h2.64v7.2h3v-7.2h2.69v16.8h-2.69v-7.2h-3v7.2Z"/><path d="M38.82,43.51h-2.66l-.46-3.05h-3.24l-.46,3.05h-2.42l2.69-16.8h3.86l2.69,16.8Zm-6.02-5.33h2.54l-1.25-8.5h-.05l-1.25,8.5Z"/><path d="M39.92,26.71h2.64v16.8h-2.64V26.71Z"/><path d="M46.76,31.34h-.05v12.17h-2.38V26.71h3.31l2.66,10.06h.05v-10.06h2.35v16.8h-2.71l-3.24-12.17Z"/><path d="M57.85,26.71h8.16v2.4h-2.76v14.4h-2.64v-14.4h-2.76v-2.4Z"/><path d="M69.68,33.79h3.62v2.4h-3.62v4.92h4.56v2.4h-7.2V26.71h7.2v2.4h-4.56v4.68Z"/><path d="M83.41,37.25v2.23c0,2.69-1.34,4.22-3.94,4.22s-3.94-1.54-3.94-4.22v-8.74c0-2.69,1.34-4.22,3.94-4.22s3.94,1.54,3.94,4.22v1.63h-2.5v-1.8c0-1.2-.53-1.66-1.37-1.66s-1.37,.46-1.37,1.66v9.07c0,1.2,.53,1.63,1.37,1.63s1.37-.43,1.37-1.63v-2.4h2.5Z"/><path d="M87.54,43.51h-2.64V26.71h2.64v7.2h3v-7.2h2.69v16.8h-2.69v-7.2h-3v7.2Z"/><path d="M97.43,31.34h-.05v12.17h-2.38V26.71h3.31l2.66,10.06h.05v-10.06h2.35v16.8h-2.71l-3.24-12.17Z"/><path d="M104.94,30.74c0-2.69,1.42-4.22,4.01-4.22s4.01,1.54,4.01,4.22v8.74c0,2.69-1.42,4.22-4.01,4.22s-4.01-1.54-4.01-4.22v-8.74Zm2.64,8.9c0,1.2,.53,1.66,1.37,1.66s1.37-.46,1.37-1.66v-9.07c0-1.2-.53-1.66-1.37-1.66s-1.37,.46-1.37,1.66v9.07Z"/><path d="M114.54,26.71h2.64v14.4h4.34v2.4h-6.98V26.71Z"/><path d="M122.34,30.74c0-2.69,1.42-4.22,4.01-4.22s4.01,1.54,4.01,4.22v8.74c0,2.69-1.42,4.22-4.01,4.22s-4.01-1.54-4.01-4.22v-8.74Zm2.64,8.9c0,1.2,.53,1.66,1.37,1.66s1.37-.46,1.37-1.66v-9.07c0-1.2-.53-1.66-1.37-1.66s-1.37,.46-1.37,1.66v9.07Z"/><path d="M135.9,34.15h3.7v5.33c0,2.69-1.34,4.22-3.94,4.22s-3.94-1.54-3.94-4.22v-8.74c0-2.69,1.34-4.22,3.94-4.22s3.94,1.54,3.94,4.22v1.63h-2.5v-1.8c0-1.2-.53-1.66-1.37-1.66s-1.37,.46-1.37,1.66v9.07c0,1.2,.53,1.63,1.37,1.63s1.37-.43,1.37-1.63v-3.1h-1.2v-2.4Z"/><path d="M143.29,37.94l-3.34-11.23h2.76l1.99,7.66h.05l1.99-7.66h2.52l-3.34,11.23v5.57h-2.64v-5.57Z"/><path d="M150.83,40.97v2.54h-2.54v-2.54h2.54Z"/><path d="M159.39,34.18h3.41v2.4h-3.41v6.94h-2.64V26.71h6.98v2.4h-4.34v5.06Z"/><path d="M164.67,30.74c0-2.69,1.42-4.22,4.01-4.22s4.01,1.54,4.01,4.22v8.74c0,2.69-1.42,4.22-4.01,4.22s-4.01-1.54-4.01-4.22v-8.74Zm2.64,8.9c0,1.2,.53,1.66,1.37,1.66s1.37-.46,1.37-1.66v-9.07c0-1.2-.53-1.66-1.37-1.66s-1.37,.46-1.37,1.66v9.07Z"/><path d="M181.93,37.25v2.23c0,2.69-1.34,4.22-3.94,4.22s-3.94-1.54-3.94-4.22v-8.74c0-2.69,1.34-4.22,3.94-4.22s3.94,1.54,3.94,4.22v1.63h-2.5v-1.8c0-1.2-.53-1.66-1.37-1.66s-1.37,.46-1.37,1.66v9.07c0,1.2,.53,1.63,1.37,1.63s1.37-.43,1.37-1.63v-2.4h2.5Z"/><path d="M185.94,26.71v12.96c0,1.2,.53,1.63,1.37,1.63s1.37-.43,1.37-1.63v-12.96h2.5v12.79c0,2.69-1.34,4.22-3.94,4.22s-3.94-1.54-3.94-4.22v-12.79h2.64Z"/><path d="M196.4,26.52c2.57,0,3.89,1.54,3.89,4.22v.53h-2.5v-.7c0-1.2-.48-1.66-1.32-1.66s-1.32,.46-1.32,1.66,.53,2.14,2.26,3.65c2.21,1.94,2.9,3.34,2.9,5.26,0,2.69-1.34,4.22-3.94,4.22s-3.94-1.54-3.94-4.22v-1.03h2.5v1.2c0,1.2,.53,1.63,1.37,1.63s1.37-.43,1.37-1.63-.53-2.14-2.26-3.65c-2.21-1.94-2.9-3.34-2.9-5.26,0-2.69,1.32-4.22,3.89-4.22Z"/><path d="M204.35,33.79h3.62v2.4h-3.62v4.92h4.56v2.4h-7.2V26.71h7.2v2.4h-4.56v4.68Z"/><path d="M210.42,26.71h4.18c2.64,0,3.94,1.46,3.94,4.15v8.5c0,2.69-1.3,4.15-3.94,4.15h-4.18V26.71Zm2.64,2.4v12h1.49c.84,0,1.34-.43,1.34-1.63v-8.74c0-1.2-.5-1.63-1.34-1.63h-1.49Z"/><path d="M224,30.74c0-2.69,1.42-4.22,4.01-4.22s4.01,1.54,4.01,4.22v8.74c0,2.69-1.42,4.22-4.01,4.22s-4.01-1.54-4.01-4.22v-8.74Zm2.64,8.9c0,1.2,.53,1.66,1.37,1.66s1.37-.46,1.37-1.66v-9.07c0-1.2-.53-1.66-1.37-1.66s-1.37,.46-1.37,1.66v9.07Z"/><path d="M236,31.34h-.05v12.17h-2.38V26.71h3.31l2.67,10.06h.05v-10.06h2.35v16.8h-2.71l-3.24-12.17Z"/><path d="M255.51,37.25v2.23c0,2.69-1.34,4.22-3.94,4.22s-3.94-1.54-3.94-4.22v-8.74c0-2.69,1.34-4.22,3.94-4.22s3.94,1.54,3.94,4.22v1.63h-2.5v-1.8c0-1.2-.53-1.66-1.37-1.66s-1.37,.46-1.37,1.66v9.07c0,1.2,.53,1.63,1.37,1.63s1.37-.43,1.37-1.63v-2.4h2.5Z"/><path d="M262.52,43.51c-.14-.43-.24-.7-.24-2.06v-2.64c0-1.56-.53-2.14-1.73-2.14h-.91v6.84h-2.64V26.71h3.98c2.74,0,3.91,1.27,3.91,3.86v1.32c0,1.73-.55,2.83-1.73,3.38v.05c1.32,.55,1.75,1.8,1.75,3.55v2.59c0,.82,.02,1.42,.29,2.04h-2.69Zm-2.88-14.4v5.16h1.03c.98,0,1.58-.43,1.58-1.78v-1.66c0-1.2-.41-1.73-1.34-1.73h-1.27Z"/><path d="M269.17,33.79h3.62v2.4h-3.62v4.92h4.56v2.4h-7.2V26.71h7.2v2.4h-4.56v4.68Z"/><path d="M283.78,43.51h-2.66l-.46-3.05h-3.24l-.46,3.05h-2.42l2.69-16.8h3.86l2.69,16.8Zm-6.02-5.33h2.54l-1.25-8.5h-.05l-1.25,8.5Z"/><path d="M283.21,26.71h8.16v2.4h-2.76v14.4h-2.64v-14.4h-2.76v-2.4Z"/><path d="M292.4,26.71h2.64v16.8h-2.64V26.71Z"/><path d="M299.24,31.34h-.05v12.17h-2.38V26.71h3.31l2.67,10.06h.05v-10.06h2.35v16.8h-2.71l-3.24-12.17Z"/><path d="M310.93,34.15h3.7v5.33c0,2.69-1.34,4.22-3.94,4.22s-3.94-1.54-3.94-4.22v-8.74c0-2.69,1.34-4.22,3.94-4.22s3.94,1.54,3.94,4.22v1.63h-2.5v-1.8c0-1.2-.53-1.66-1.37-1.66s-1.37,.46-1.37,1.66v9.07c0,1.2,.53,1.63,1.37,1.63s1.37-.43,1.37-1.63v-3.1h-1.2v-2.4Z"/><path d="M320.33,26.71h2.64v14.4h4.34v2.4h-6.98V26.71Z"/><path d="M328.35,26.71h2.64v16.8h-2.64V26.71Z"/><path d="M336.75,40.42h.05l1.99-13.71h2.42l-2.59,16.8h-3.94l-2.59-16.8h2.67l1.99,13.71Z"/><path d="M344.96,33.79h3.62v2.4h-3.62v4.92h4.56v2.4h-7.2V26.71h7.2v2.4h-4.56v4.68Z"/><path d="M13.64,57.79h3.62v2.4h-3.62v4.92h4.56v2.4h-7.2v-16.8h7.2v2.4h-4.56v4.68Z"/><path d="M23.68,64.42h.05l1.99-13.71h2.42l-2.59,16.8h-3.94l-2.59-16.8h2.66l1.99,13.71Z"/><path d="M31.88,57.79h3.62v2.4h-3.62v4.92h4.56v2.4h-7.2v-16.8h7.2v2.4h-4.56v4.68Z"/><path d="M40.36,55.34h-.05v12.17h-2.38v-16.8h3.31l2.66,10.06h.05v-10.06h2.35v16.8h-2.71l-3.24-12.17Z"/><path d="M47.32,50.71h8.16v2.4h-2.76v14.4h-2.64v-14.4h-2.76v-2.4Z"/><path d="M60.06,50.52c2.57,0,3.89,1.54,3.89,4.22v.53h-2.5v-.7c0-1.2-.48-1.66-1.32-1.66s-1.32,.46-1.32,1.66,.53,2.14,2.26,3.65c2.21,1.94,2.9,3.34,2.9,5.26,0,2.69-1.34,4.22-3.94,4.22s-3.94-1.54-3.94-4.22v-1.03h2.5v1.2c0,1.2,.53,1.63,1.37,1.63s1.37-.43,1.37-1.63-.53-2.14-2.26-3.65c-2.21-1.94-2.9-3.34-2.9-5.26,0-2.69,1.32-4.22,3.89-4.22Z"/><path d="M70.42,50.71h8.16v2.4h-2.76v14.4h-2.64v-14.4h-2.76v-2.4Z"/><path d="M82.25,67.51h-2.64v-16.8h2.64v7.2h3v-7.2h2.69v16.8h-2.69v-7.2h-3v7.2Z"/><path d="M98.28,67.51h-2.66l-.46-3.05h-3.24l-.46,3.05h-2.42l2.69-16.8h3.86l2.69,16.8Zm-6.02-5.33h2.54l-1.25-8.5h-.05l-1.25,8.5Z"/><path d="M97.7,50.71h8.16v2.4h-2.76v14.4h-2.64v-14.4h-2.76v-2.4Z"/><path d="M116.27,50.52c2.57,0,3.89,1.54,3.89,4.22v.53h-2.5v-.7c0-1.2-.48-1.66-1.32-1.66s-1.32,.46-1.32,1.66,.53,2.14,2.26,3.65c2.21,1.94,2.9,3.34,2.9,5.26,0,2.69-1.34,4.22-3.94,4.22s-3.94-1.54-3.94-4.22v-1.03h2.5v1.2c0,1.2,.53,1.63,1.37,1.63s1.37-.43,1.37-1.63-.53-2.14-2.26-3.65c-2.21-1.94-2.9-3.34-2.9-5.26,0-2.69,1.32-4.22,3.89-4.22Z"/><path d="M124.21,67.51h-2.64v-16.8h2.64v7.2h3v-7.2h2.69v16.8h-2.69v-7.2h-3v7.2Z"/><path d="M131.48,54.74c0-2.69,1.42-4.22,4.01-4.22s4.01,1.54,4.01,4.22v8.74c0,2.69-1.42,4.22-4.01,4.22s-4.01-1.54-4.01-4.22v-8.74Zm2.64,8.9c0,1.2,.53,1.66,1.37,1.66s1.37-.46,1.37-1.66v-9.07c0-1.2-.53-1.66-1.37-1.66s-1.37,.46-1.37,1.66v9.07Z"/><path d="M146.96,58.56h-.05l-.94,8.95h-3.62l-1.87-16.8h2.57l1.39,13.25h.05l1.25-13.25h2.54l1.3,13.34h.05l1.34-13.34h2.3l-1.87,16.8h-3.5l-.94-8.95Z"/><path d="M162.13,61.25v2.23c0,2.69-1.34,4.22-3.94,4.22s-3.94-1.54-3.94-4.22v-8.74c0-2.69,1.34-4.22,3.94-4.22s3.94,1.54,3.94,4.22v1.63h-2.5v-1.8c0-1.2-.53-1.66-1.37-1.66s-1.37,.46-1.37,1.66v9.07c0,1.2,.53,1.63,1.37,1.63s1.37-.43,1.37-1.63v-2.4h2.5Z"/><path d="M172.16,67.51h-2.66l-.46-3.05h-3.24l-.46,3.05h-2.42l2.69-16.8h3.86l2.69,16.8Zm-6.02-5.33h2.54l-1.25-8.5h-.05l-1.25,8.5Z"/><path d="M176.82,50.52c2.57,0,3.89,1.54,3.89,4.22v.53h-2.5v-.7c0-1.2-.48-1.66-1.32-1.66s-1.32,.46-1.32,1.66,.53,2.14,2.26,3.65c2.21,1.94,2.9,3.34,2.9,5.26,0,2.69-1.34,4.22-3.94,4.22s-3.94-1.54-3.94-4.22v-1.03h2.5v1.2c0,1.2,.53,1.63,1.37,1.63s1.37-.43,1.37-1.63-.53-2.14-2.26-3.65c-2.21-1.94-2.9-3.34-2.9-5.26,0-2.69,1.32-4.22,3.89-4.22Z"/><path d="M184.76,57.79h3.62v2.4h-3.62v4.92h4.56v2.4h-7.2v-16.8h7.2v2.4h-4.56v4.68Z"/><path d="M196.44,54.74c0-2.69,1.42-4.22,4.01-4.22s4.01,1.54,4.01,4.22v8.74c0,2.69-1.42,4.22-4.01,4.22s-4.01-1.54-4.01-4.22v-8.74Zm2.64,8.9c0,1.2,.53,1.66,1.37,1.66s1.37-.46,1.37-1.66v-9.07c0-1.2-.53-1.66-1.37-1.66s-1.37,.46-1.37,1.66v9.07Z"/><path d="M208.56,50.71v12.96c0,1.2,.53,1.63,1.37,1.63s1.37-.43,1.37-1.63v-12.96h2.5v12.79c0,2.69-1.34,4.22-3.94,4.22s-3.94-1.54-3.94-4.22v-12.79h2.64Z"/><path d="M220.99,67.51c-.14-.43-.24-.7-.24-2.06v-2.64c0-1.56-.53-2.14-1.73-2.14h-.91v6.84h-2.64v-16.8h3.98c2.74,0,3.91,1.27,3.91,3.86v1.32c0,1.73-.55,2.83-1.73,3.38v.05c1.32,.55,1.75,1.8,1.75,3.55v2.59c0,.82,.02,1.42,.29,2.04h-2.69Zm-2.88-14.4v5.16h1.03c.98,0,1.58-.43,1.58-1.78v-1.66c0-1.2-.41-1.73-1.34-1.73h-1.27Z"/><path d="M236.38,62.64h.05l1.78-11.93h3.67v16.8h-2.5v-12.05h-.05l-1.78,12.05h-2.5l-1.92-11.88h-.05v11.88h-2.3v-16.8h3.67l1.92,11.93Z"/><path d="M246.32,57.79h3.62v2.4h-3.62v4.92h4.56v2.4h-7.2v-16.8h7.2v2.4h-4.56v4.68Z"/><path d="M257.96,62.64h.05l1.78-11.93h3.67v16.8h-2.5v-12.05h-.05l-1.78,12.05h-2.5l-1.92-11.88h-.05v11.88h-2.3v-16.8h3.67l1.92,11.93Z"/><path d="M273.15,54.58v.6c0,1.73-.53,2.81-1.7,3.36v.05c1.42,.55,1.97,1.8,1.97,3.58v1.37c0,2.59-1.37,3.98-4.01,3.98h-4.15v-16.8h3.98c2.74,0,3.91,1.27,3.91,3.86Zm-5.26-1.46v4.44h1.03c.98,0,1.58-.43,1.58-1.78v-.94c0-1.2-.41-1.73-1.34-1.73h-1.27Zm0,6.84v5.16h1.51c.89,0,1.37-.41,1.37-1.66v-1.46c0-1.56-.5-2.04-1.7-2.04h-1.18Z"/><path d="M277.52,57.79h3.62v2.4h-3.62v4.92h4.56v2.4h-7.2v-16.8h7.2v2.4h-4.56v4.68Z"/><path d="M289.11,67.51c-.14-.43-.24-.7-.24-2.06v-2.64c0-1.56-.53-2.14-1.73-2.14h-.91v6.84h-2.64v-16.8h3.98c2.74,0,3.91,1.27,3.91,3.86v1.32c0,1.73-.55,2.83-1.73,3.38v.05c1.32,.55,1.75,1.8,1.75,3.55v2.59c0,.82,.02,1.42,.29,2.04h-2.69Zm-2.88-14.4v5.16h1.03c.98,0,1.58-.43,1.58-1.78v-1.66c0-1.2-.41-1.73-1.34-1.73h-1.27Z"/><path d="M296.67,50.52c2.57,0,3.89,1.54,3.89,4.22v.53h-2.5v-.7c0-1.2-.48-1.66-1.32-1.66s-1.32,.46-1.32,1.66,.53,2.14,2.26,3.65c2.21,1.94,2.9,3.34,2.9,5.26,0,2.69-1.34,4.22-3.94,4.22s-3.94-1.54-3.94-4.22v-1.03h2.5v1.2c0,1.2,.53,1.63,1.37,1.63s1.37-.43,1.37-1.63-.53-2.14-2.26-3.65c-2.21-1.94-2.9-3.34-2.9-5.26,0-2.69,1.32-4.22,3.89-4.22Z"/><path d="M316.34,67.51h-2.66l-.46-3.05h-3.24l-.46,3.05h-2.42l2.69-16.8h3.86l2.69,16.8Zm-6.02-5.33h2.54l-1.25-8.5h-.05l-1.25,8.5Z"/><path d="M322.96,67.51c-.14-.43-.24-.7-.24-2.06v-2.64c0-1.56-.53-2.14-1.73-2.14h-.91v6.84h-2.64v-16.8h3.98c2.74,0,3.91,1.27,3.91,3.86v1.32c0,1.73-.55,2.83-1.73,3.38v.05c1.32,.55,1.75,1.8,1.75,3.55v2.59c0,.82,.02,1.42,.29,2.04h-2.69Zm-2.88-14.4v5.16h1.03c.98,0,1.58-.43,1.58-1.78v-1.66c0-1.2-.41-1.73-1.34-1.73h-1.27Z"/><path d="M326.2,50.71h8.16v2.4h-2.76v14.4h-2.64v-14.4h-2.76v-2.4Z"/><path d="M343.06,58.66v-.05c-1.25-.53-1.82-1.63-1.82-3.43v-.31c0-2.69,1.3-4.15,3.94-4.15h3.02v2.4h-2.98c-.84,0-1.34,.43-1.34,1.63v1.03c0,1.34,.6,1.78,1.58,1.78h1.15v-1.87h2.64v1.87h.7v2.4h-.7v5.52c0,.82,.02,1.42,.29,2.04h-2.69c-.12-.34-.19-.58-.24-1.32h-.05c-.46,.98-1.22,1.51-2.4,1.51-1.94,0-2.93-1.37-2.93-3.84v-1.7c0-1.7,.53-2.93,1.82-3.5Zm2.18,6.65c.79,0,1.32-.41,1.37-1.46v-3.89h-1.01c-1.2,0-1.73,.58-1.73,2.14v1.56c0,1.2,.53,1.66,1.37,1.66Z"/><path d="M16.57,86.64h.05l1.78-11.93h3.67v16.8h-2.5v-12.05h-.05l-1.78,12.05h-2.5l-1.92-11.88h-.05v11.88h-2.3v-16.8h3.67l1.92,11.93Z"/><path d="M26.39,74.71v12.96c0,1.2,.53,1.63,1.37,1.63s1.37-.43,1.37-1.63v-12.96h2.5v12.79c0,2.69-1.34,4.22-3.94,4.22s-3.94-1.54-3.94-4.22v-12.79h2.64Z"/><path d="M36.85,74.52c2.57,0,3.89,1.54,3.89,4.22v.53h-2.5v-.7c0-1.2-.48-1.66-1.32-1.66s-1.32,.46-1.32,1.66,.53,2.14,2.26,3.65c2.21,1.94,2.9,3.34,2.9,5.26,0,2.69-1.34,4.22-3.94,4.22s-3.94-1.54-3.94-4.22v-1.03h2.5v1.2c0,1.2,.53,1.63,1.37,1.63s1.37-.43,1.37-1.63-.53-2.14-2.26-3.65c-2.21-1.94-2.9-3.34-2.9-5.26,0-2.69,1.32-4.22,3.89-4.22Z"/><path d="M42.16,74.71h2.64v16.8h-2.64v-16.8Z"/><path d="M54.25,85.25v2.23c0,2.69-1.34,4.22-3.94,4.22s-3.94-1.54-3.94-4.22v-8.74c0-2.69,1.34-4.22,3.94-4.22s3.94,1.54,3.94,4.22v1.63h-2.5v-1.8c0-1.2-.53-1.66-1.37-1.66s-1.37,.46-1.37,1.66v9.07c0,1.2,.53,1.63,1.37,1.63s1.37-.43,1.37-1.63v-2.4h2.5Z"/><path d="M58.14,88.97v2.54h-2.54v-2.54h2.54Z"/><path d="M75.92,82.56h-.05l-.94,8.95h-3.62l-1.87-16.8h2.57l1.39,13.25h.05l1.25-13.25h2.54l1.3,13.35h.05l1.34-13.35h2.3l-1.87,16.8h-3.5l-.94-8.95Z"/><path d="M86.07,81.79h3.62v2.4h-3.62v4.92h4.56v2.4h-7.2v-16.8h7.2v2.4h-4.56v4.68Z"/><path d="M110.79,91.51h-2.66l-.46-3.05h-3.24l-.46,3.05h-2.42l2.69-16.8h3.86l2.69,16.8Zm-6.02-5.33h2.54l-1.25-8.5h-.05l-1.25,8.5Z"/><path d="M111.89,74.71h2.64v14.4h4.34v2.4h-6.98v-16.8Z"/><path d="M123.46,74.52c2.57,0,3.89,1.54,3.89,4.22v.53h-2.5v-.7c0-1.2-.48-1.66-1.32-1.66s-1.32,.46-1.32,1.66,.53,2.14,2.26,3.65c2.21,1.94,2.9,3.34,2.9,5.26,0,2.69-1.34,4.22-3.94,4.22s-3.94-1.54-3.94-4.22v-1.03h2.5v1.2c0,1.2,.53,1.63,1.37,1.63s1.37-.43,1.37-1.63-.53-2.14-2.26-3.65c-2.21-1.94-2.9-3.34-2.9-5.26,0-2.69,1.32-4.22,3.89-4.22Z"/><path d="M128.55,78.74c0-2.69,1.42-4.22,4.01-4.22s4.01,1.54,4.01,4.22v8.74c0,2.69-1.42,4.22-4.01,4.22s-4.01-1.54-4.01-4.22v-8.74Zm2.64,8.9c0,1.2,.53,1.66,1.37,1.66s1.37-.46,1.37-1.66v-9.07c0-1.2-.53-1.66-1.37-1.66s-1.37,.46-1.37,1.66v9.07Z"/><path d="M151.8,74.52c2.57,0,3.89,1.54,3.89,4.22v.53h-2.5v-.7c0-1.2-.48-1.66-1.32-1.66s-1.32,.46-1.32,1.66,.53,2.14,2.26,3.65c2.21,1.94,2.9,3.34,2.9,5.26,0,2.69-1.34,4.22-3.94,4.22s-3.94-1.54-3.94-4.22v-1.03h2.5v1.2c0,1.2,.53,1.63,1.37,1.63s1.37-.43,1.37-1.63-.53-2.14-2.26-3.65c-2.21-1.94-2.9-3.34-2.9-5.26,0-2.69,1.32-4.22,3.89-4.22Z"/><path d="M156.33,74.71h8.16v2.4h-2.76v14.4h-2.64v-14.4h-2.76v-2.4Z"/><path d="M171.04,91.51c-.14-.43-.24-.7-.24-2.06v-2.64c0-1.56-.53-2.14-1.73-2.14h-.91v6.84h-2.64v-16.8h3.98c2.74,0,3.91,1.27,3.91,3.86v1.32c0,1.73-.55,2.83-1.73,3.38v.05c1.32,.55,1.75,1.8,1.75,3.55v2.59c0,.82,.02,1.42,.29,2.04h-2.69Zm-2.88-14.4v5.16h1.03c.98,0,1.58-.43,1.58-1.78v-1.66c0-1.2-.41-1.73-1.34-1.73h-1.27Z"/><path d="M175.05,74.71h2.64v16.8h-2.64v-16.8Z"/><path d="M183.45,88.42h.05l1.99-13.7h2.42l-2.59,16.8h-3.94l-2.59-16.8h2.66l1.99,13.7Z"/><path d="M191.66,81.79h3.62v2.4h-3.62v4.92h4.56v2.4h-7.2v-16.8h7.2v2.4h-4.56v4.68Z"/><path d="M207.06,74.71h8.16v2.4h-2.76v14.4h-2.64v-14.4h-2.76v-2.4Z"/><path d="M216.04,78.74c0-2.69,1.42-4.22,4.01-4.22s4.01,1.54,4.01,4.22v8.74c0,2.69-1.42,4.22-4.01,4.22s-4.01-1.54-4.01-4.22v-8.74Zm2.64,8.9c0,1.2,.53,1.66,1.37,1.66s1.37-.46,1.37-1.66v-9.07c0-1.2-.53-1.66-1.37-1.66s-1.37,.46-1.37,1.66v9.07Z"/><path d="M238.38,81.79h3.62v2.4h-3.62v4.92h4.56v2.4h-7.2v-16.8h7.2v2.4h-4.56v4.68Z"/><path d="M246.85,79.34h-.05v12.17h-2.38v-16.8h3.31l2.66,10.06h.05v-10.06h2.35v16.8h-2.71l-3.24-12.17Z"/><path d="M254.58,74.71h2.64v14.4h4.34v2.4h-6.98v-16.8Z"/><path d="M262.59,74.71h2.64v16.8h-2.64v-16.8Z"/><path d="M271,82.15h3.7v5.33c0,2.69-1.34,4.22-3.94,4.22s-3.94-1.54-3.94-4.22v-8.74c0-2.69,1.34-4.22,3.94-4.22s3.94,1.54,3.94,4.22v1.63h-2.5v-1.8c0-1.2-.53-1.66-1.37-1.66s-1.37,.46-1.37,1.66v9.07c0,1.2,.53,1.63,1.37,1.63s1.37-.43,1.37-1.63v-3.1h-1.2v-2.4Z"/><path d="M278.91,91.51h-2.64v-16.8h2.64v7.2h3v-7.2h2.69v16.8h-2.69v-7.2h-3v7.2Z"/><path d="M285.63,74.71h8.16v2.4h-2.76v14.4h-2.64v-14.4h-2.76v-2.4Z"/><path d="M297.47,81.79h3.62v2.4h-3.62v4.92h4.56v2.4h-7.2v-16.8h7.2v2.4h-4.56v4.68Z"/><path d="M305.94,79.34h-.05v12.17h-2.38v-16.8h3.31l2.66,10.06h.05v-10.06h2.35v16.8h-2.71l-3.24-12.17Z"/><path d="M323,74.71h8.16v2.4h-2.76v14.4h-2.64v-14.4h-2.76v-2.4Z"/><path d="M334.83,91.51h-2.64v-16.8h2.64v7.2h3v-7.2h2.69v16.8h-2.69v-7.2h-3v7.2Z"/><path d="M344.96,81.79h3.62v2.4h-3.62v4.92h4.56v2.4h-7.2v-16.8h7.2v2.4h-4.56v4.68Z"/><path d="M13.48,109.94l-3.34-11.23h2.76l1.99,7.66h.05l1.99-7.66h2.52l-3.34,11.23v5.57h-2.64v-5.57Z"/><path d="M19.81,102.74c0-2.69,1.42-4.22,4.01-4.22s4.01,1.54,4.01,4.22v8.74c0,2.69-1.42,4.22-4.01,4.22s-4.01-1.54-4.01-4.22v-8.74Zm2.64,8.91c0,1.2,.53,1.66,1.37,1.66s1.37-.46,1.37-1.66v-9.07c0-1.2-.53-1.66-1.37-1.66s-1.37,.46-1.37,1.66v9.07Z"/><path d="M31.93,98.71v12.96c0,1.2,.53,1.63,1.37,1.63s1.37-.43,1.37-1.63v-12.96h2.5v12.79c0,2.69-1.34,4.22-3.94,4.22s-3.94-1.54-3.94-4.22v-12.79h2.64Z"/><path d="M38.08,98.71h8.16v2.4h-2.76v14.4h-2.64v-14.4h-2.76v-2.4Z"/><path d="M49.91,115.51h-2.64v-16.8h2.64v7.2h3v-7.2h2.69v16.8h-2.69v-7.2h-3v7.2Z"/><path d="M66.51,106.56h-.05l-.94,8.95h-3.62l-1.87-16.8h2.57l1.39,13.25h.05l1.25-13.25h2.54l1.3,13.35h.05l1.34-13.35h2.3l-1.87,16.8h-3.5l-.94-8.95Z"/><path d="M74.02,98.71h2.64v16.8h-2.64v-16.8Z"/><path d="M77.7,98.71h8.16v2.4h-2.76v14.4h-2.64v-14.4h-2.76v-2.4Z"/><path d="M89.53,115.51h-2.64v-16.8h2.64v7.2h3v-7.2h2.69v16.8h-2.69v-7.2h-3v7.2Z"/><path d="M100.04,102.74c0-2.69,1.42-4.22,4.01-4.22s4.01,1.54,4.01,4.22v8.74c0,2.69-1.42,4.22-4.01,4.22s-4.01-1.54-4.01-4.22v-8.74Zm2.64,8.91c0,1.2,.53,1.66,1.37,1.66s1.37-.46,1.37-1.66v-9.07c0-1.2-.53-1.66-1.37-1.66s-1.37,.46-1.37,1.66v9.07Z"/><path d="M112.16,98.71v12.96c0,1.2,.53,1.63,1.37,1.63s1.37-.43,1.37-1.63v-12.96h2.5v12.79c0,2.69-1.34,4.22-3.94,4.22s-3.94-1.54-3.94-4.22v-12.79h2.64Z"/><path d="M124.59,115.51c-.14-.43-.24-.7-.24-2.06v-2.64c0-1.56-.53-2.14-1.73-2.14h-.91v6.84h-2.64v-16.8h3.98c2.74,0,3.91,1.27,3.91,3.86v1.32c0,1.73-.55,2.83-1.73,3.38v.05c1.32,.55,1.75,1.8,1.75,3.55v2.59c0,.82,.02,1.42,.29,2.04h-2.69Zm-2.88-14.4v5.16h1.03c.98,0,1.58-.43,1.58-1.78v-1.66c0-1.2-.41-1.73-1.34-1.73h-1.27Z"/><path d="M135.38,98.52c2.57,0,3.89,1.54,3.89,4.22v.53h-2.5v-.7c0-1.2-.48-1.66-1.32-1.66s-1.32,.46-1.32,1.66,.53,2.14,2.26,3.65c2.21,1.94,2.9,3.34,2.9,5.26,0,2.69-1.34,4.22-3.94,4.22s-3.94-1.54-3.94-4.22v-1.03h2.5v1.2c0,1.2,.53,1.63,1.37,1.63s1.37-.43,1.37-1.63-.53-2.14-2.26-3.65c-2.21-1.94-2.9-3.34-2.9-5.26,0-2.69,1.32-4.22,3.89-4.22Z"/><path d="M139.92,98.71h8.16v2.4h-2.76v14.4h-2.64v-14.4h-2.76v-2.4Z"/><path d="M156.75,115.51h-2.66l-.46-3.05h-3.24l-.46,3.05h-2.42l2.69-16.8h3.86l2.69,16.8Zm-6.02-5.33h2.54l-1.25-8.5h-.05l-1.25,8.5Z"/><path d="M156.17,98.71h8.16v2.4h-2.76v14.4h-2.64v-14.4h-2.76v-2.4Z"/><path d="M168,105.79h3.62v2.4h-3.62v4.92h4.56v2.4h-7.2v-16.8h7.2v2.4h-4.56v4.68Z"/><path d="M177.09,102.74c0-2.69,1.42-4.22,4.01-4.22s4.01,1.54,4.01,4.22v8.74c0,2.69-1.42,4.22-4.01,4.22s-4.01-1.54-4.01-4.22v-8.74Zm2.64,8.91c0,1.2,.53,1.66,1.37,1.66s1.37-.46,1.37-1.66v-9.07c0-1.2-.53-1.66-1.37-1.66s-1.37,.46-1.37,1.66v9.07Z"/><path d="M189.33,106.18h3.41v2.4h-3.41v6.94h-2.64v-16.8h6.98v2.4h-4.34v5.06Z"/><path d="M197.3,98.71h8.16v2.4h-2.76v14.4h-2.64v-14.4h-2.76v-2.4Z"/><path d="M209.13,115.51h-2.64v-16.8h2.64v7.2h3v-7.2h2.69v16.8h-2.69v-7.2h-3v7.2Z"/><path d="M219.26,105.79h3.62v2.4h-3.62v4.92h4.56v2.4h-7.2v-16.8h7.2v2.4h-4.56v4.68Z"/><path d="M237.11,115.51h-2.66l-.46-3.05h-3.24l-.46,3.05h-2.42l2.69-16.8h3.86l2.69,16.8Zm-6.02-5.33h2.54l-1.25-8.5h-.05l-1.25,8.5Z"/><path d="M243.73,115.51c-.14-.43-.24-.7-.24-2.06v-2.64c0-1.56-.53-2.14-1.73-2.14h-.91v6.84h-2.64v-16.8h3.98c2.74,0,3.91,1.27,3.91,3.86v1.32c0,1.73-.55,2.83-1.73,3.38v.05c1.32,.55,1.75,1.8,1.75,3.55v2.59c0,.82,.02,1.42,.29,2.04h-2.69Zm-2.88-14.4v5.16h1.03c.98,0,1.58-.43,1.58-1.78v-1.66c0-1.2-.41-1.73-1.34-1.73h-1.27Z"/><path d="M246.97,98.71h8.16v2.4h-2.76v14.4h-2.64v-14.4h-2.76v-2.4Z"/><path d="M264.49,102.84c0-1.51-.53-1.92-1.37-1.92s-1.37,.46-1.37,1.66v1.08h-2.5v-.91c0-2.69,1.34-4.22,3.94-4.22s3.94,1.54,3.94,4.22v.43c0,1.8-.58,2.9-1.85,3.43v.05c1.32,.58,1.85,1.8,1.85,3.5v1.32c0,2.69-1.34,4.22-3.94,4.22s-3.94-1.54-3.94-4.22v-1.39h2.5v1.56c0,1.2,.53,1.66,1.37,1.66s1.37-.41,1.37-1.9v-1.32c0-1.56-.53-2.14-1.73-2.14h-.89v-2.4h1.03c.98,0,1.58-.43,1.58-1.78v-.94Z"/><path d="M268.78,98.71h4.18c2.64,0,3.94,1.46,3.94,4.15v8.5c0,2.69-1.3,4.15-3.94,4.15h-4.18v-16.8Zm2.64,2.4v12h1.49c.84,0,1.34-.43,1.34-1.63v-8.74c0-1.2-.5-1.63-1.34-1.63h-1.49Z"/><path d="M280.92,98.71h8.16v2.4h-2.76v14.4h-2.64v-14.4h-2.76v-2.4Z"/><path d="M292.76,105.79h3.62v2.4h-3.62v4.92h4.56v2.4h-7.2v-16.8h7.2v2.4h-4.56v4.68Z"/><path d="M306.49,109.25v2.23c0,2.69-1.34,4.22-3.94,4.22s-3.94-1.54-3.94-4.22v-8.74c0-2.69,1.34-4.22,3.94-4.22s3.94,1.54,3.94,4.22v1.63h-2.5v-1.8c0-1.2-.53-1.66-1.37-1.66s-1.37,.46-1.37,1.66v9.07c0,1.2,.53,1.63,1.37,1.63s1.37-.43,1.37-1.63v-2.4h2.5Z"/><path d="M310.61,115.51h-2.64v-16.8h2.64v7.2h3v-7.2h2.69v16.8h-2.69v-7.2h-3v7.2Z"/><path d="M320.5,103.34h-.05v12.17h-2.38v-16.8h3.31l2.66,10.06h.05v-10.06h2.35v16.8h-2.71l-3.24-12.17Z"/><path d="M328.01,102.74c0-2.69,1.42-4.22,4.01-4.22s4.01,1.54,4.01,4.22v8.74c0,2.69-1.42,4.22-4.01,4.22s-4.01-1.54-4.01-4.22v-8.74Zm2.64,8.91c0,1.2,.53,1.66,1.37,1.66s1.37-.46,1.37-1.66v-9.07c0-1.2-.53-1.66-1.37-1.66s-1.37,.46-1.37,1.66v9.07Z"/><path d="M337.61,98.71h2.64v14.4h4.34v2.4h-6.98v-16.8Z"/><path d="M344.55,105.91h4.8v2.4h-4.8v-2.4Z"/><path d="M10.79,126.74c0-2.69,1.42-4.22,4.01-4.22s4.01,1.54,4.01,4.22v8.74c0,2.69-1.42,4.22-4.01,4.22s-4.01-1.54-4.01-4.22v-8.74Zm2.64,8.91c0,1.2,.53,1.66,1.37,1.66s1.37-.46,1.37-1.66v-9.07c0-1.2-.53-1.66-1.37-1.66s-1.37,.46-1.37,1.66v9.07Z"/><path d="M24.32,130.15h3.7v5.33c0,2.69-1.34,4.22-3.94,4.22s-3.94-1.54-3.94-4.22v-8.74c0-2.69,1.34-4.22,3.94-4.22s3.94,1.54,3.94,4.22v1.63h-2.5v-1.8c0-1.2-.53-1.66-1.37-1.66s-1.37,.46-1.37,1.66v9.07c0,1.2,.53,1.63,1.37,1.63s1.37-.43,1.37-1.63v-3.1h-1.2v-2.4Z"/><path d="M31.68,133.94l-3.34-11.23h2.76l1.99,7.66h.05l1.99-7.66h2.52l-3.34,11.23v5.57h-2.64v-5.57Z"/><path d="M51.9,133.25v2.23c0,2.69-1.34,4.22-3.94,4.22s-3.94-1.54-3.94-4.22v-8.74c0-2.69,1.34-4.22,3.94-4.22s3.94,1.54,3.94,4.22v1.63h-2.5v-1.8c0-1.2-.53-1.66-1.37-1.66s-1.37,.46-1.37,1.66v9.07c0,1.2,.53,1.63,1.37,1.63s1.37-.43,1.37-1.63v-2.4h2.5Z"/><path d="M56,129.79h3.62v2.4h-3.62v4.92h4.56v2.4h-7.2v-16.8h7.2v2.4h-4.56v4.68Z"/><path d="M64.44,127.34h-.05v12.17h-2.38v-16.8h3.31l2.66,10.06h.05v-10.06h2.35v16.8h-2.71l-3.24-12.17Z"/><path d="M71.37,122.71h8.16v2.4h-2.76v14.4h-2.64v-14.4h-2.76v-2.4Z"/><path d="M83.17,129.79h3.62v2.4h-3.62v4.92h4.56v2.4h-7.2v-16.8h7.2v2.4h-4.56v4.68Z"/><path d="M94.73,139.51c-.14-.43-.24-.7-.24-2.06v-2.64c0-1.56-.53-2.14-1.73-2.14h-.91v6.84h-2.64v-16.8h3.98c2.74,0,3.91,1.27,3.91,3.86v1.32c0,1.73-.55,2.83-1.73,3.38v.05c1.32,.55,1.75,1.8,1.75,3.55v2.59c0,.82,.02,1.42,.29,2.04h-2.69Zm-2.88-14.4v5.16h1.03c.98,0,1.58-.43,1.58-1.78v-1.66c0-1.2-.41-1.73-1.34-1.73h-1.27Z"/><path d="M103.62,122.71h8.16v2.4h-2.76v14.4h-2.64v-14.4h-2.76v-2.4Z"/><path d="M115.42,139.51h-2.64v-16.8h2.64v7.2h3v-7.2h2.69v16.8h-2.69v-7.2h-3v7.2Z"/><path d="M131.43,139.51h-2.66l-.46-3.05h-3.24l-.46,3.05h-2.42l2.69-16.8h3.86l2.69,16.8Zm-6.02-5.33h2.54l-1.25-8.5h-.05l-1.25,8.5Z"/><path d="M130.82,122.71h8.16v2.4h-2.76v14.4h-2.64v-14.4h-2.76v-2.4Z"/><path d="M151.54,130.56h-.05l-.94,8.95h-3.62l-1.87-16.8h2.57l1.39,13.25h.05l1.25-13.25h2.54l1.3,13.35h.05l1.34-13.35h2.3l-1.87,16.8h-3.5l-.94-8.95Z"/><path d="M159.02,122.71h2.64v16.8h-2.64v-16.8Z"/><path d="M163.43,122.71h2.64v14.4h4.34v2.4h-6.98v-16.8Z"/><path d="M171.42,122.71h2.64v14.4h4.34v2.4h-6.98v-16.8Z"/><path d="M187.73,139.51h-2.64v-16.8h2.64v7.2h3v-7.2h2.69v16.8h-2.69v-7.2h-3v7.2Z"/><path d="M194.97,126.74c0-2.69,1.42-4.22,4.01-4.22s4.01,1.54,4.01,4.22v8.74c0,2.69-1.42,4.22-4.01,4.22s-4.01-1.54-4.01-4.22v-8.74Zm2.64,8.91c0,1.2,.53,1.66,1.37,1.66s1.37-.46,1.37-1.66v-9.07c0-1.2-.53-1.66-1.37-1.66s-1.37,.46-1.37,1.66v9.07Z"/><path d="M207.06,122.71v12.96c0,1.2,.53,1.63,1.37,1.63s1.37-.43,1.37-1.63v-12.96h2.5v12.79c0,2.69-1.34,4.22-3.94,4.22s-3.94-1.54-3.94-4.22v-12.79h2.64Z"/><path d="M217.49,122.52c2.57,0,3.89,1.54,3.89,4.22v.53h-2.5v-.7c0-1.2-.48-1.66-1.32-1.66s-1.32,.46-1.32,1.66,.53,2.14,2.26,3.65c2.21,1.94,2.9,3.34,2.9,5.26,0,2.69-1.34,4.22-3.94,4.22s-3.94-1.54-3.94-4.22v-1.03h2.5v1.2c0,1.2,.53,1.63,1.37,1.63s1.37-.43,1.37-1.63-.53-2.14-2.26-3.65c-2.21-1.94-2.9-3.34-2.9-5.26,0-2.69,1.32-4.22,3.89-4.22Z"/><path d="M225.41,129.79h3.62v2.4h-3.62v4.92h4.56v2.4h-7.2v-16.8h7.2v2.4h-4.56v4.68Z"/><path d="M244.78,133.25v2.23c0,2.69-1.34,4.22-3.94,4.22s-3.94-1.54-3.94-4.22v-8.74c0-2.69,1.34-4.22,3.94-4.22s3.94,1.54,3.94,4.22v1.63h-2.5v-1.8c0-1.2-.53-1.66-1.37-1.66s-1.37,.46-1.37,1.66v9.07c0,1.2,.53,1.63,1.37,1.63s1.37-.43,1.37-1.63v-2.4h2.5Z"/><path d="M246.03,126.74c0-2.69,1.42-4.22,4.01-4.22s4.01,1.54,4.01,4.22v8.74c0,2.69-1.42,4.22-4.01,4.22s-4.01-1.54-4.01-4.22v-8.74Zm2.64,8.91c0,1.2,.53,1.66,1.37,1.66s1.37-.46,1.37-1.66v-9.07c0-1.2-.53-1.66-1.37-1.66s-1.37,.46-1.37,1.66v9.07Z"/><path d="M261.16,134.64h.05l1.78-11.93h3.67v16.8h-2.5v-12.05h-.05l-1.78,12.05h-2.5l-1.92-11.88h-.05v11.88h-2.3v-16.8h3.67l1.92,11.93Z"/><path d="M276.25,126.86v2.18c0,2.69-1.3,4.15-3.94,4.15h-1.25v6.31h-2.64v-16.8h3.89c2.64,0,3.94,1.46,3.94,4.15Zm-5.18-1.75v5.69h1.25c.84,0,1.3-.38,1.3-1.58v-2.52c0-1.2-.46-1.58-1.3-1.58h-1.25Z"/><path d="M279.85,122.71v12.96c0,1.2,.53,1.63,1.37,1.63s1.37-.43,1.37-1.63v-12.96h2.5v12.79c0,2.69-1.34,4.22-3.94,4.22s-3.94-1.54-3.94-4.22v-12.79h2.64Z"/><path d="M285.96,122.71h8.16v2.4h-2.76v14.4h-2.64v-14.4h-2.76v-2.4Z"/><path d="M297.76,129.79h3.62v2.4h-3.62v4.92h4.56v2.4h-7.2v-16.8h7.2v2.4h-4.56v4.68Z"/><path d="M309.33,139.51c-.14-.43-.24-.7-.24-2.06v-2.64c0-1.56-.53-2.14-1.73-2.14h-.91v6.84h-2.64v-16.8h3.98c2.74,0,3.91,1.27,3.91,3.86v1.32c0,1.73-.55,2.83-1.73,3.38v.05c1.32,.55,1.75,1.8,1.75,3.55v2.59c0,.82,.02,1.42,.29,2.04h-2.69Zm-2.88-14.4v5.16h1.03c.98,0,1.58-.43,1.58-1.78v-1.66c0-1.2-.41-1.73-1.34-1.73h-1.27Z"/><path d="M316.86,122.52c2.57,0,3.89,1.54,3.89,4.22v.53h-2.5v-.7c0-1.2-.48-1.66-1.32-1.66s-1.32,.46-1.32,1.66,.53,2.14,2.26,3.65c2.21,1.94,2.9,3.34,2.9,5.26,0,2.69-1.34,4.22-3.94,4.22s-3.94-1.54-3.94-4.22v-1.03h2.5v1.2c0,1.2,.53,1.63,1.37,1.63s1.37-.43,1.37-1.63-.53-2.14-2.26-3.65c-2.21-1.94-2.9-3.34-2.9-5.26,0-2.69,1.32-4.22,3.89-4.22Z"/><path d="M322.01,139.51v-2.54h2.54v2.28l-1.15,2.66h-1.08l.7-2.4h-1.01Z"/><path d="M337.09,126.84c0-1.51-.53-1.92-1.37-1.92s-1.37,.46-1.37,1.66v1.08h-2.5v-.91c0-2.69,1.34-4.22,3.94-4.22s3.94,1.54,3.94,4.22v.43c0,1.8-.58,2.9-1.85,3.43v.05c1.32,.58,1.85,1.8,1.85,3.5v1.32c0,2.69-1.34,4.22-3.94,4.22s-3.94-1.54-3.94-4.22v-1.39h2.5v1.56c0,1.2,.53,1.66,1.37,1.66s1.37-.41,1.37-1.9v-1.32c0-1.56-.53-2.14-1.73-2.14h-.89v-2.4h1.03c.98,0,1.58-.43,1.58-1.78v-.94Z"/><path d="M341.36,122.71h4.18c2.64,0,3.94,1.46,3.94,4.15v8.5c0,2.69-1.3,4.15-3.94,4.15h-4.18v-16.8Zm2.64,2.4v12h1.49c.84,0,1.34-.43,1.34-1.63v-8.74c0-1.2-.5-1.63-1.34-1.63h-1.49Z"/><path d="M18.83,150.86v2.18c0,2.69-1.3,4.15-3.94,4.15h-1.25v6.31h-2.64v-16.8h3.89c2.64,0,3.94,1.46,3.94,4.15Zm-5.18-1.75v5.69h1.25c.84,0,1.3-.38,1.3-1.58v-2.52c0-1.2-.46-1.58-1.3-1.58h-1.25Z"/><path d="M25.45,163.51c-.14-.43-.24-.7-.24-2.06v-2.64c0-1.56-.53-2.14-1.73-2.14h-.91v6.84h-2.64v-16.8h3.98c2.74,0,3.91,1.27,3.91,3.86v1.32c0,1.73-.55,2.83-1.73,3.38v.05c1.32,.55,1.75,1.8,1.75,3.55v2.59c0,.82,.02,1.42,.29,2.04h-2.69Zm-2.88-14.4v5.16h1.03c.98,0,1.58-.43,1.58-1.78v-1.66c0-1.2-.41-1.73-1.34-1.73h-1.27Z"/><path d="M29.46,146.71h2.64v16.8h-2.64v-16.8Z"/><path d="M36.3,151.34h-.05v12.17h-2.38v-16.8h3.31l2.66,10.06h.05v-10.06h2.35v16.8h-2.71l-3.24-12.17Z"/><path d="M43.26,146.71h8.16v2.4h-2.76v14.4h-2.64v-14.4h-2.76v-2.4Z"/><path d="M55.09,153.79h3.62v2.4h-3.62v4.92h4.56v2.4h-7.2v-16.8h7.2v2.4h-4.56v4.68Z"/><path d="M66.69,163.51c-.14-.43-.24-.7-.24-2.06v-2.64c0-1.56-.53-2.14-1.73-2.14h-.91v6.84h-2.64v-16.8h3.98c2.74,0,3.91,1.27,3.91,3.86v1.32c0,1.73-.55,2.83-1.73,3.38v.05c1.32,.55,1.75,1.8,1.75,3.55v2.59c0,.82,.02,1.42,.29,2.04h-2.69Zm-2.88-14.4v5.16h1.03c.98,0,1.58-.43,1.58-1.78v-1.66c0-1.2-.41-1.73-1.34-1.73h-1.27Z"/><path d="M74.24,146.52c2.57,0,3.89,1.54,3.89,4.22v.53h-2.5v-.7c0-1.2-.48-1.66-1.32-1.66s-1.32,.46-1.32,1.66,.53,2.14,2.26,3.65c2.21,1.94,2.9,3.34,2.9,5.26,0,2.69-1.34,4.22-3.94,4.22s-3.94-1.54-3.94-4.22v-1.03h2.5v1.2c0,1.2,.53,1.63,1.37,1.63s1.37-.43,1.37-1.63-.53-2.14-2.26-3.65c-2.21-1.94-2.9-3.34-2.9-5.26,0-2.69,1.32-4.22,3.89-4.22Z"/><path d="M79.43,163.51v-2.54h2.54v2.28l-1.15,2.66h-1.08l.7-2.4h-1.01Z"/><path d="M95.26,163.51h-2.66l-.46-3.05h-3.24l-.46,3.05h-2.42l2.69-16.8h3.86l2.69,16.8Zm-6.02-5.33h2.54l-1.25-8.5h-.05l-1.25,8.5Z"/><path d="M98.76,151.34h-.05v12.17h-2.38v-16.8h3.31l2.66,10.06h.05v-10.06h2.35v16.8h-2.71l-3.24-12.17Z"/><path d="M106.49,146.71h4.18c2.64,0,3.94,1.46,3.94,4.15v8.5c0,2.69-1.3,4.15-3.94,4.15h-4.18v-16.8Zm2.64,2.4v12h1.49c.84,0,1.34-.43,1.34-1.63v-8.74c0-1.2-.5-1.63-1.34-1.63h-1.49Z"/><path d="M127.65,163.51h-2.66l-.46-3.05h-3.24l-.46,3.05h-2.42l2.69-16.8h3.86l2.69,16.8Zm-6.02-5.33h2.54l-1.25-8.5h-.05l-1.25,8.5Z"/><path d="M138.2,146.52c2.57,0,3.89,1.54,3.89,4.22v.53h-2.5v-.7c0-1.2-.48-1.66-1.32-1.66s-1.32,.46-1.32,1.66,.53,2.14,2.26,3.65c2.21,1.94,2.9,3.34,2.9,5.26,0,2.69-1.34,4.22-3.94,4.22s-3.94-1.54-3.94-4.22v-1.03h2.5v1.2c0,1.2,.53,1.63,1.37,1.63s1.37-.43,1.37-1.63-.53-2.14-2.26-3.65c-2.21-1.94-2.9-3.34-2.9-5.26,0-2.69,1.32-4.22,3.89-4.22Z"/><path d="M152.05,163.51h-2.66l-.46-3.05h-3.24l-.46,3.05h-2.42l2.69-16.8h3.86l2.69,16.8Zm-6.02-5.33h2.54l-1.25-8.5h-.05l-1.25,8.5Z"/><path d="M155.79,154.18h3.41v2.4h-3.41v6.94h-2.64v-16.8h6.98v2.4h-4.34v5.06Z"/><path d="M163.92,153.79h3.62v2.4h-3.62v4.92h4.56v2.4h-7.2v-16.8h7.2v2.4h-4.56v4.68Z"/><path d="M176.9,160.42h.05l1.99-13.71h2.42l-2.59,16.8h-3.94l-2.59-16.8h2.66l1.99,13.71Z"/><path d="M182.47,146.71h2.64v16.8h-2.64v-16.8Z"/><path d="M192.43,163.51c-.14-.43-.24-.7-.24-2.06v-2.64c0-1.56-.53-2.14-1.73-2.14h-.91v6.84h-2.64v-16.8h3.98c2.74,0,3.91,1.27,3.91,3.86v1.32c0,1.73-.55,2.83-1.73,3.38v.05c1.32,.55,1.75,1.8,1.75,3.55v2.59c0,.82,.02,1.42,.29,2.04h-2.69Zm-2.88-14.4v5.16h1.03c.98,0,1.58-.43,1.58-1.78v-1.66c0-1.2-.41-1.73-1.34-1.73h-1.27Z"/><path d="M195.67,146.71h8.16v2.4h-2.76v14.4h-2.64v-14.4h-2.76v-2.4Z"/><path d="M207.38,146.71v12.96c0,1.2,.53,1.63,1.37,1.63s1.37-.43,1.37-1.63v-12.96h2.5v12.79c0,2.69-1.34,4.22-3.94,4.22s-3.94-1.54-3.94-4.22v-12.79h2.64Z"/><path d="M219.81,163.51c-.14-.43-.24-.7-.24-2.06v-2.64c0-1.56-.53-2.14-1.73-2.14h-.91v6.84h-2.64v-16.8h3.98c2.74,0,3.91,1.27,3.91,3.86v1.32c0,1.73-.55,2.83-1.73,3.38v.05c1.32,.55,1.75,1.8,1.75,3.55v2.59c0,.82,.02,1.42,.29,2.04h-2.69Zm-2.88-14.4v5.16h1.03c.98,0,1.58-.43,1.58-1.78v-1.66c0-1.2-.41-1.73-1.34-1.73h-1.27Z"/><path d="M232.37,163.51h-2.66l-.46-3.05h-3.24l-.46,3.05h-2.42l2.69-16.8h3.86l2.69,16.8Zm-6.02-5.33h2.54l-1.25-8.5h-.05l-1.25,8.5Z"/><path d="M233.47,146.71h2.64v14.4h4.34v2.4h-6.98v-16.8Z"/><path d="M249.95,163.51c-.14-.43-.24-.7-.24-2.06v-2.64c0-1.56-.53-2.14-1.73-2.14h-.91v6.84h-2.64v-16.8h3.98c2.74,0,3.91,1.27,3.91,3.86v1.32c0,1.73-.55,2.83-1.73,3.38v.05c1.32,.55,1.75,1.8,1.75,3.55v2.59c0,.82,.02,1.42,.29,2.04h-2.69Zm-2.88-14.4v5.16h1.03c.98,0,1.58-.43,1.58-1.78v-1.66c0-1.2-.41-1.73-1.34-1.73h-1.27Z"/><path d="M256.6,153.79h3.62v2.4h-3.62v4.92h4.56v2.4h-7.2v-16.8h7.2v2.4h-4.56v4.68Z"/><path d="M271.21,163.51h-2.66l-.46-3.05h-3.24l-.46,3.05h-2.42l2.69-16.8h3.86l2.69,16.8Zm-6.02-5.33h2.54l-1.25-8.5h-.05l-1.25,8.5Z"/><path d="M272.32,146.71h2.64v14.4h4.34v2.4h-6.98v-16.8Z"/><path d="M280.33,146.71h2.64v16.8h-2.64v-16.8Z"/><path d="M284,146.71h8.16v2.4h-2.76v14.4h-2.64v-14.4h-2.76v-2.4Z"/><path d="M295.67,157.94l-3.34-11.23h2.76l1.99,7.66h.05l1.99-7.66h2.52l-3.34,11.23v5.57h-2.64v-5.57Z"/><path d="M311.04,163.51c-.14-.43-.24-.7-.24-2.06v-2.64c0-1.56-.53-2.14-1.73-2.14h-.91v6.84h-2.64v-16.8h3.98c2.74,0,3.91,1.27,3.91,3.86v1.32c0,1.73-.55,2.83-1.73,3.38v.05c1.32,.55,1.75,1.8,1.75,3.55v2.59c0,.82,.02,1.42,.29,2.04h-2.69Zm-2.88-14.4v5.16h1.03c.98,0,1.58-.43,1.58-1.78v-1.66c0-1.2-.41-1.73-1.34-1.73h-1.27Z"/><path d="M314.84,150.74c0-2.69,1.42-4.22,4.01-4.22s4.01,1.54,4.01,4.22v8.74c0,2.69-1.42,4.22-4.01,4.22s-4.01-1.54-4.01-4.22v-8.74Zm2.64,8.91c0,1.2,.53,1.66,1.37,1.66s1.37-.46,1.37-1.66v-9.07c0-1.2-.53-1.66-1.37-1.66s-1.37,.46-1.37,1.66v9.07Z"/><path d="M324.22,150.74c0-2.69,1.42-4.22,4.01-4.22s4.01,1.54,4.01,4.22v8.74c0,2.69-1.42,4.22-4.01,4.22s-4.01-1.54-4.01-4.22v-8.74Zm2.64,8.91c0,1.2,.53,1.66,1.37,1.66s1.37-.46,1.37-1.66v-9.07c0-1.2-.53-1.66-1.37-1.66s-1.37,.46-1.37,1.66v9.07Z"/><path d="M339.39,158.64h.05l1.78-11.93h3.67v16.8h-2.5v-12.05h-.05l-1.78,12.05h-2.5l-1.92-11.88h-.05v11.88h-2.3v-16.8h3.67l1.92,11.93Z"/><path d="M349.23,160.97v2.54h-2.54v-2.54h2.54Z"/></g></svg>