<?xml version="1.0" encoding="UTF-8"?><svg id="a" xmlns="http://www.w3.org/2000/svg" viewBox="0 0 360 199.44"><g id="b"><path d="M10.44,4.92h8.16v2.4h-2.76v14.4h-2.64V7.32h-2.76v-2.4Z"/><path d="M19.42,8.95c0-2.69,1.42-4.22,4.01-4.22s4.01,1.54,4.01,4.22v8.74c0,2.69-1.42,4.22-4.01,4.22s-4.01-1.54-4.01-4.22V8.95Zm2.64,8.9c0,1.2,.53,1.66,1.37,1.66s1.37-.46,1.37-1.66V8.78c0-1.2-.53-1.66-1.37-1.66s-1.37,.46-1.37,1.66v9.07Z"/><path d="M33.09,19.32c.29,.02,.62,.02,.91,.02,.84,0,1.51-.31,1.51-1.61V4.92h2.64v12.62c0,3.36-1.8,4.22-3.79,4.22-.48,0-.84,0-1.27-.05v-2.4Z"/><path d="M39.62,8.95c0-2.69,1.42-4.22,4.01-4.22s4.01,1.54,4.01,4.22v8.74c0,2.69-1.42,4.22-4.01,4.22s-4.01-1.54-4.01-4.22V8.95Zm2.64,8.9c0,1.2,.53,1.66,1.37,1.66s1.37-.46,1.37-1.66V8.78c0-1.2-.53-1.66-1.37-1.66s-1.37,.46-1.37,1.66v9.07Z"/><path d="M49.22,4.92h2.64V21.72h-2.64V4.92Z"/><path d="M56.06,9.55h-.05v12.17h-2.38V4.92h3.31l2.66,10.06h.05V4.92h2.35V21.72h-2.71l-3.24-12.17Z"/><path d="M68.36,8.95c0-2.69,1.42-4.22,4.01-4.22s4.01,1.54,4.01,4.22v8.74c0,2.69-1.42,4.22-4.01,4.22s-4.01-1.54-4.01-4.22V8.95Zm2.64,8.9c0,1.2,.53,1.66,1.37,1.66s1.37-.46,1.37-1.66V8.78c0-1.2-.53-1.66-1.37-1.66s-1.37,.46-1.37,1.66v9.07Z"/><path d="M80.48,4.92v12.96c0,1.2,.53,1.63,1.37,1.63s1.37-.43,1.37-1.63V4.92h2.5v12.79c0,2.69-1.34,4.22-3.94,4.22s-3.94-1.54-3.94-4.22V4.92h2.64Z"/><path d="M92.92,21.72c-.14-.43-.24-.7-.24-2.06v-2.64c0-1.56-.53-2.14-1.73-2.14h-.91v6.84h-2.64V4.92h3.98c2.74,0,3.91,1.27,3.91,3.86v1.32c0,1.73-.55,2.83-1.73,3.38v.05c1.32,.55,1.75,1.8,1.75,3.55v2.59c0,.82,.02,1.42,.29,2.04h-2.69Zm-2.88-14.4v5.16h1.03c.98,0,1.58-.43,1.58-1.78v-1.66c0-1.2-.41-1.73-1.34-1.73h-1.27Z"/><path d="M101.72,4.92h4.18c2.64,0,3.94,1.46,3.94,4.15v8.5c0,2.69-1.3,4.15-3.94,4.15h-4.18V4.92Zm2.64,2.4v12h1.49c.84,0,1.34-.43,1.34-1.63V8.95c0-1.2-.5-1.63-1.34-1.63h-1.49Z"/><path d="M119.91,21.72h-2.66l-.46-3.05h-3.24l-.46,3.05h-2.42l2.69-16.8h3.86l2.69,16.8Zm-6.02-5.33h2.54l-1.25-8.5h-.05l-1.25,8.5Z"/><path d="M120.77,8.95c0-2.69,1.42-4.22,4.01-4.22s4.01,1.54,4.01,4.22v8.74c0,2.69-1.42,4.22-4.01,4.22s-4.01-1.54-4.01-4.22V8.95Zm2.64,8.9c0,1.2,.53,1.66,1.37,1.66s1.37-.46,1.37-1.66V8.78c0-1.2-.53-1.66-1.37-1.66s-1.37,.46-1.37,1.66v9.07Z"/><path d="M130.13,21.72v-2.54h2.54v2.28l-1.15,2.66h-1.08l.7-2.4h-1.01Z"/><path d="M141.74,16.15l-3.34-11.23h2.76l1.99,7.66h.05l1.99-7.66h2.52l-3.34,11.23v5.57h-2.64v-5.57Z"/><path d="M148.08,8.95c0-2.69,1.42-4.22,4.01-4.22s4.01,1.54,4.01,4.22v8.74c0,2.69-1.42,4.22-4.01,4.22s-4.01-1.54-4.01-4.22V8.95Zm2.64,8.9c0,1.2,.53,1.66,1.37,1.66s1.37-.46,1.37-1.66V8.78c0-1.2-.53-1.66-1.37-1.66s-1.37,.46-1.37,1.66v9.07Z"/><path d="M160.2,4.92v12.96c0,1.2,.53,1.63,1.37,1.63s1.37-.43,1.37-1.63V4.92h2.5v12.79c0,2.69-1.34,4.22-3.94,4.22s-3.94-1.54-3.94-4.22V4.92h2.64Z"/><path d="M177.47,16.85h.05l1.78-11.93h3.67V21.72h-2.5V9.67h-.05l-1.78,12.05h-2.5l-1.92-11.88h-.05v11.88h-2.3V4.92h3.67l1.92,11.93Z"/><path d="M187.29,4.92v12.96c0,1.2,.53,1.63,1.37,1.63s1.37-.43,1.37-1.63V4.92h2.5v12.79c0,2.69-1.34,4.22-3.94,4.22s-3.94-1.54-3.94-4.22V4.92h2.64Z"/><path d="M197.75,4.72c2.57,0,3.89,1.54,3.89,4.22v.53h-2.5v-.7c0-1.2-.48-1.66-1.32-1.66s-1.32,.46-1.32,1.66,.53,2.14,2.26,3.65c2.21,1.94,2.9,3.34,2.9,5.26,0,2.69-1.34,4.22-3.94,4.22s-3.94-1.54-3.94-4.22v-1.03h2.5v1.2c0,1.2,.53,1.63,1.37,1.63s1.37-.43,1.37-1.63-.53-2.14-2.26-3.65c-2.21-1.94-2.9-3.34-2.9-5.26,0-2.69,1.32-4.22,3.89-4.22Z"/><path d="M202.29,4.92h8.16v2.4h-2.76v14.4h-2.64V7.32h-2.76v-2.4Z"/><path d="M224.1,9.07v2.18c0,2.69-1.3,4.15-3.94,4.15h-1.25v6.31h-2.64V4.92h3.89c2.64,0,3.94,1.46,3.94,4.15Zm-5.18-1.75v5.69h1.25c.84,0,1.3-.38,1.3-1.58v-2.52c0-1.2-.46-1.58-1.3-1.58h-1.25Z"/><path d="M227.72,4.92v12.96c0,1.2,.53,1.63,1.37,1.63s1.37-.43,1.37-1.63V4.92h2.5v12.79c0,2.69-1.34,4.22-3.94,4.22s-3.94-1.54-3.94-4.22V4.92h2.64Z"/><path d="M240.15,21.72c-.14-.43-.24-.7-.24-2.06v-2.64c0-1.56-.53-2.14-1.73-2.14h-.91v6.84h-2.64V4.92h3.98c2.74,0,3.91,1.27,3.91,3.86v1.32c0,1.73-.55,2.83-1.73,3.38v.05c1.32,.55,1.75,1.8,1.75,3.55v2.59c0,.82,.02,1.42,.29,2.04h-2.69Zm-2.88-14.4v5.16h1.03c.98,0,1.58-.43,1.58-1.78v-1.66c0-1.2-.41-1.73-1.34-1.73h-1.27Z"/><path d="M251.82,15.45v2.23c0,2.69-1.34,4.22-3.94,4.22s-3.94-1.54-3.94-4.22V8.95c0-2.69,1.34-4.22,3.94-4.22s3.94,1.54,3.94,4.22v1.63h-2.5v-1.8c0-1.2-.53-1.66-1.37-1.66s-1.37,.46-1.37,1.66v9.07c0,1.2,.53,1.63,1.37,1.63s1.37-.43,1.37-1.63v-2.4h2.5Z"/><path d="M255.94,21.72h-2.64V4.92h2.64v7.2h3V4.92h2.69V21.72h-2.69v-7.2h-3v7.2Z"/><path d="M271.98,21.72h-2.66l-.46-3.05h-3.24l-.46,3.05h-2.42l2.69-16.8h3.86l2.69,16.8Zm-6.02-5.33h2.54l-1.25-8.5h-.05l-1.25,8.5Z"/><path d="M276.63,4.72c2.57,0,3.89,1.54,3.89,4.22v.53h-2.5v-.7c0-1.2-.48-1.66-1.32-1.66s-1.32,.46-1.32,1.66,.53,2.14,2.26,3.65c2.21,1.94,2.9,3.34,2.9,5.26,0,2.69-1.34,4.22-3.94,4.22s-3.94-1.54-3.94-4.22v-1.03h2.5v1.2c0,1.2,.53,1.63,1.37,1.63s1.37-.43,1.37-1.63-.53-2.14-2.26-3.65c-2.21-1.94-2.9-3.34-2.9-5.26,0-2.69,1.32-4.22,3.89-4.22Z"/><path d="M284.58,12h3.62v2.4h-3.62v4.92h4.56v2.4h-7.2V4.92h7.2v2.4h-4.56v4.68Z"/><path d="M303.99,21.72h-2.66l-.46-3.05h-3.24l-.46,3.05h-2.42l2.69-16.8h3.86l2.69,16.8Zm-6.02-5.33h2.54l-1.25-8.5h-.05l-1.25,8.5Z"/><path d="M315.45,16.85h.05l1.78-11.93h3.67V21.72h-2.5V9.67h-.05l-1.78,12.05h-2.5l-1.92-11.88h-.05v11.88h-2.3V4.92h3.67l1.92,11.93Z"/><path d="M325.39,12h3.62v2.4h-3.62v4.92h4.56v2.4h-7.2V4.92h7.2v2.4h-4.56v4.68Z"/><path d="M337.03,16.85h.05l1.78-11.93h3.67V21.72h-2.5V9.67h-.05l-1.78,12.05h-2.5l-1.92-11.88h-.05v11.88h-2.3V4.92h3.67l1.92,11.93Z"/><path d="M344.2,12.12h4.8v2.4h-4.8v-2.4Z"/><path d="M19.11,32.78v.6c0,1.73-.53,2.81-1.7,3.36v.05c1.42,.55,1.97,1.8,1.97,3.58v1.37c0,2.59-1.37,3.98-4.01,3.98h-4.15V28.92h3.98c2.74,0,3.91,1.27,3.91,3.86Zm-5.26-1.46v4.44h1.03c.98,0,1.58-.43,1.58-1.78v-.94c0-1.2-.41-1.73-1.34-1.73h-1.27Zm0,6.84v5.16h1.51c.89,0,1.37-.41,1.37-1.66v-1.46c0-1.56-.5-2.04-1.7-2.04h-1.18Z"/><path d="M23.47,36h3.62v2.4h-3.62v4.92h4.56v2.4h-7.2V28.92h7.2v2.4h-4.56v4.68Z"/><path d="M35.06,45.72c-.14-.43-.24-.7-.24-2.06v-2.64c0-1.56-.53-2.14-1.73-2.14h-.91v6.84h-2.64V28.92h3.98c2.74,0,3.91,1.27,3.91,3.86v1.32c0,1.73-.55,2.83-1.73,3.38v.05c1.32,.55,1.75,1.8,1.75,3.55v2.59c0,.82,.02,1.42,.29,2.04h-2.69Zm-2.88-14.4v5.16h1.03c.98,0,1.58-.43,1.58-1.78v-1.66c0-1.2-.41-1.73-1.34-1.73h-1.27Z"/><path d="M42.62,28.72c2.57,0,3.89,1.54,3.89,4.22v.53h-2.5v-.7c0-1.2-.48-1.66-1.32-1.66s-1.32,.46-1.32,1.66,.53,2.14,2.26,3.65c2.21,1.94,2.9,3.34,2.9,5.26,0,2.69-1.34,4.22-3.94,4.22s-3.94-1.54-3.94-4.22v-1.03h2.5v1.2c0,1.2,.53,1.63,1.37,1.63s1.37-.43,1.37-1.63-.53-2.14-2.26-3.65c-2.21-1.94-2.9-3.34-2.9-5.26,0-2.69,1.32-4.22,3.89-4.22Z"/><path d="M50.57,45.72h-2.64V28.92h2.64v7.2h3v-7.2h2.69v16.8h-2.69v-7.2h-3v7.2Z"/><path d="M58.06,28.92h2.64v16.8h-2.64V28.92Z"/><path d="M70.32,33.07v2.18c0,2.69-1.3,4.15-3.94,4.15h-1.25v6.31h-2.64V28.92h3.89c2.64,0,3.94,1.46,3.94,4.15Zm-5.18-1.75v5.69h1.25c.84,0,1.3-.38,1.3-1.58v-2.52c0-1.2-.46-1.58-1.3-1.58h-1.25Z"/><path d="M83.47,33.55h-.05v12.17h-2.38V28.92h3.31l2.66,10.06h.05v-10.06h2.35v16.8h-2.71l-3.24-12.17Z"/><path d="M93.83,36.38h3.41v2.4h-3.41v6.94h-2.64V28.92h6.98v2.4h-4.34v5.06Z"/><path d="M98.56,28.92h8.16v2.4h-2.76v14.4h-2.64v-14.4h-2.76v-2.4Z"/><path d="M120.04,36.38h3.41v2.4h-3.41v6.94h-2.64V28.92h6.98v2.4h-4.34v5.06Z"/><path d="M131.05,45.72c-.14-.43-.24-.7-.24-2.06v-2.64c0-1.56-.53-2.14-1.73-2.14h-.91v6.84h-2.64V28.92h3.98c2.74,0,3.91,1.27,3.91,3.86v1.32c0,1.73-.55,2.83-1.73,3.38v.05c1.32,.55,1.75,1.8,1.75,3.55v2.59c0,.82,.02,1.42,.29,2.04h-2.69Zm-2.88-14.4v5.16h1.03c.98,0,1.58-.43,1.58-1.78v-1.66c0-1.2-.41-1.73-1.34-1.73h-1.27Z"/><path d="M134.84,32.95c0-2.69,1.42-4.22,4.01-4.22s4.01,1.54,4.01,4.22v8.74c0,2.69-1.42,4.22-4.01,4.22s-4.01-1.54-4.01-4.22v-8.74Zm2.64,8.9c0,1.2,.53,1.66,1.37,1.66s1.37-.46,1.37-1.66v-9.07c0-1.2-.53-1.66-1.37-1.66s-1.37,.46-1.37,1.66v9.07Z"/><path d="M150.01,40.85h.05l1.78-11.93h3.67v16.8h-2.5v-12.05h-.05l-1.78,12.05h-2.5l-1.92-11.88h-.05v11.88h-2.3V28.92h3.67l1.92,11.93Z"/><path d="M166.73,32.95c0-2.69,1.42-4.22,4.01-4.22s4.01,1.54,4.01,4.22v8.74c0,2.69-1.42,4.22-4.01,4.22s-4.01-1.54-4.01-4.22v-8.74Zm2.64,8.9c0,1.2,.53,1.66,1.37,1.66s1.37-.46,1.37-1.66v-9.07c0-1.2-.53-1.66-1.37-1.66s-1.37,.46-1.37,1.66v9.07Z"/><path d="M178.85,28.92v12.96c0,1.2,.53,1.63,1.37,1.63s1.37-.43,1.37-1.63v-12.96h2.5v12.79c0,2.69-1.34,4.22-3.94,4.22s-3.94-1.54-3.94-4.22v-12.79h2.64Z"/><path d="M191.29,45.72c-.14-.43-.24-.7-.24-2.06v-2.64c0-1.56-.53-2.14-1.73-2.14h-.91v6.84h-2.64V28.92h3.98c2.74,0,3.91,1.27,3.91,3.86v1.32c0,1.73-.55,2.83-1.73,3.38v.05c1.32,.55,1.75,1.8,1.75,3.55v2.59c0,.82,.02,1.42,.29,2.04h-2.69Zm-2.88-14.4v5.16h1.03c.98,0,1.58-.43,1.58-1.78v-1.66c0-1.2-.41-1.73-1.34-1.73h-1.27Z"/><path d="M210.5,40.85h.05l1.78-11.93h3.67v16.8h-2.5v-12.05h-.05l-1.78,12.05h-2.5l-1.92-11.88h-.05v11.88h-2.3V28.92h3.67l1.92,11.93Z"/><path d="M226.35,45.72h-2.66l-.46-3.05h-3.24l-.46,3.05h-2.42l2.69-16.8h3.86l2.69,16.8Zm-6.02-5.33h2.54l-1.25-8.5h-.05l-1.25,8.5Z"/><path d="M232.97,45.72c-.14-.43-.24-.7-.24-2.06v-2.64c0-1.56-.53-2.14-1.73-2.14h-.91v6.84h-2.64V28.92h3.98c2.74,0,3.91,1.27,3.91,3.86v1.32c0,1.73-.55,2.83-1.73,3.38v.05c1.32,.55,1.75,1.8,1.75,3.55v2.59c0,.82,.02,1.42,.29,2.04h-2.69Zm-2.88-14.4v5.16h1.03c.98,0,1.58-.43,1.58-1.78v-1.66c0-1.2-.41-1.73-1.34-1.73h-1.27Z"/><path d="M240.43,39.02l-.82,1.54v5.16h-2.64V28.92h2.64v7.27h.05l3.41-7.27h2.64l-3.67,7.49,3.67,9.31h-2.71l-2.57-6.7Z"/><path d="M249.43,36h3.62v2.4h-3.62v4.92h4.56v2.4h-7.2V28.92h7.2v2.4h-4.56v4.68Z"/><path d="M254.74,28.92h8.16v2.4h-2.76v14.4h-2.64v-14.4h-2.76v-2.4Z"/><path d="M271.75,33.07v2.18c0,2.69-1.3,4.15-3.94,4.15h-1.25v6.31h-2.64V28.92h3.89c2.64,0,3.94,1.46,3.94,4.15Zm-5.18-1.75v5.69h1.25c.84,0,1.3-.38,1.3-1.58v-2.52c0-1.2-.46-1.58-1.3-1.58h-1.25Z"/><path d="M272.86,28.92h2.64v14.4h4.34v2.4h-6.98V28.92Z"/><path d="M289.42,45.72h-2.66l-.46-3.05h-3.24l-.46,3.05h-2.42l2.69-16.8h3.86l2.69,16.8Zm-6.02-5.33h2.54l-1.25-8.5h-.05l-1.25,8.5Z"/><path d="M298.15,39.45v2.23c0,2.69-1.34,4.22-3.94,4.22s-3.94-1.54-3.94-4.22v-8.74c0-2.69,1.34-4.22,3.94-4.22s3.94,1.54,3.94,4.22v1.63h-2.5v-1.8c0-1.2-.53-1.66-1.37-1.66s-1.37,.46-1.37,1.66v9.07c0,1.2,.53,1.63,1.37,1.63s1.37-.43,1.37-1.63v-2.4h2.5Z"/><path d="M302.28,36h3.62v2.4h-3.62v4.92h4.56v2.4h-7.2V28.92h7.2v2.4h-4.56v4.68Z"/><path d="M310.9,43.17v2.54h-2.54v-2.54h2.54Z"/><path d="M322.12,32.95c0-2.69,1.42-4.22,4.01-4.22s4.01,1.54,4.01,4.22v8.74c0,2.69-1.42,4.22-4.01,4.22s-4.01-1.54-4.01-4.22v-8.74Zm2.64,8.9c0,1.2,.53,1.66,1.37,1.66s1.37-.46,1.37-1.66v-9.07c0-1.2-.53-1.66-1.37-1.66s-1.37,.46-1.37,1.66v9.07Z"/><path d="M334.24,28.92v12.96c0,1.2,.53,1.63,1.37,1.63s1.37-.43,1.37-1.63v-12.96h2.5v12.79c0,2.69-1.34,4.22-3.94,4.22s-3.94-1.54-3.94-4.22v-12.79h2.64Z"/><path d="M346.67,45.72c-.14-.43-.24-.7-.24-2.06v-2.64c0-1.56-.53-2.14-1.73-2.14h-.91v6.84h-2.64V28.92h3.98c2.74,0,3.91,1.27,3.91,3.86v1.32c0,1.73-.55,2.83-1.73,3.38v.05c1.32,.55,1.75,1.8,1.75,3.55v2.59c0,.82,.02,1.42,.29,2.04h-2.69Zm-2.88-14.4v5.16h1.03c.98,0,1.58-.43,1.58-1.78v-1.66c0-1.2-.41-1.73-1.34-1.73h-1.27Z"/><path d="M16.78,64.85h.05l1.78-11.93h3.67v16.8h-2.5v-12.05h-.05l-1.78,12.05h-2.5l-1.92-11.88h-.05v11.88h-2.3v-16.8h3.67l1.92,11.93Z"/><path d="M26.71,60h3.62v2.4h-3.62v4.92h4.56v2.4h-7.2v-16.8h7.2v2.4h-4.56v4.68Z"/><path d="M38.35,64.85h.05l1.78-11.93h3.67v16.8h-2.5v-12.05h-.05l-1.78,12.05h-2.5l-1.92-11.88h-.05v11.88h-2.3v-16.8h3.67l1.92,11.93Z"/><path d="M53.55,56.78v.6c0,1.73-.53,2.81-1.7,3.36v.05c1.42,.55,1.97,1.8,1.97,3.58v1.37c0,2.59-1.37,3.98-4.01,3.98h-4.15v-16.8h3.98c2.74,0,3.91,1.27,3.91,3.86Zm-5.26-1.46v4.44h1.03c.98,0,1.58-.43,1.58-1.78v-.94c0-1.2-.41-1.73-1.34-1.73h-1.27Zm0,6.84v5.16h1.51c.89,0,1.37-.41,1.37-1.66v-1.46c0-1.56-.5-2.04-1.7-2.04h-1.18Z"/><path d="M57.91,60h3.62v2.4h-3.62v4.92h4.56v2.4h-7.2v-16.8h7.2v2.4h-4.56v4.68Z"/><path d="M69.5,69.72c-.14-.43-.24-.7-.24-2.06v-2.64c0-1.56-.53-2.14-1.73-2.14h-.91v6.84h-2.64v-16.8h3.98c2.74,0,3.91,1.27,3.91,3.86v1.32c0,1.73-.55,2.83-1.73,3.38v.05c1.32,.55,1.75,1.8,1.75,3.55v2.59c0,.82,.02,1.42,.29,2.04h-2.69Zm-2.88-14.4v5.16h1.03c.98,0,1.58-.43,1.58-1.78v-1.66c0-1.2-.41-1.73-1.34-1.73h-1.27Z"/><path d="M77.06,52.72c2.57,0,3.89,1.54,3.89,4.22v.53h-2.5v-.7c0-1.2-.48-1.66-1.32-1.66s-1.32,.46-1.32,1.66,.53,2.14,2.26,3.65c2.21,1.94,2.9,3.34,2.9,5.26,0,2.69-1.34,4.22-3.94,4.22s-3.94-1.54-3.94-4.22v-1.03h2.5v1.2c0,1.2,.53,1.63,1.37,1.63s1.37-.43,1.37-1.63-.53-2.14-2.26-3.65c-2.21-1.94-2.9-3.34-2.9-5.26,0-2.69,1.32-4.22,3.89-4.22Z"/><path d="M85.01,69.72h-2.64v-16.8h2.64v7.2h3v-7.2h2.69v16.8h-2.69v-7.2h-3v7.2Z"/><path d="M92.5,52.92h2.64v16.8h-2.64v-16.8Z"/><path d="M104.76,57.07v2.18c0,2.69-1.3,4.15-3.94,4.15h-1.25v6.31h-2.64v-16.8h3.89c2.64,0,3.94,1.46,3.94,4.15Zm-5.18-1.75v5.69h1.25c.84,0,1.3-.38,1.3-1.58v-2.52c0-1.2-.46-1.58-1.3-1.58h-1.25Z"/><path d="M109.42,52.72c2.57,0,3.89,1.54,3.89,4.22v.53h-2.5v-.7c0-1.2-.48-1.66-1.32-1.66s-1.32,.46-1.32,1.66,.53,2.14,2.26,3.65c2.21,1.94,2.9,3.34,2.9,5.26,0,2.69-1.34,4.22-3.94,4.22s-3.94-1.54-3.94-4.22v-1.03h2.5v1.2c0,1.2,.53,1.63,1.37,1.63s1.37-.43,1.37-1.63-.53-2.14-2.26-3.65c-2.21-1.94-2.9-3.34-2.9-5.26,0-2.69,1.32-4.22,3.89-4.22Z"/><path d="M128.13,69.72h-2.66l-.46-3.05h-3.24l-.46,3.05h-2.42l2.69-16.8h3.86l2.69,16.8Zm-6.02-5.33h2.54l-1.25-8.5h-.05l-1.25,8.5Z"/><path d="M134.75,69.72c-.14-.43-.24-.7-.24-2.06v-2.64c0-1.56-.53-2.14-1.73-2.14h-.91v6.84h-2.64v-16.8h3.98c2.74,0,3.91,1.27,3.91,3.86v1.32c0,1.73-.55,2.83-1.73,3.38v.05c1.32,.55,1.75,1.8,1.75,3.55v2.59c0,.82,.02,1.42,.29,2.04h-2.69Zm-2.88-14.4v5.16h1.03c.98,0,1.58-.43,1.58-1.78v-1.66c0-1.2-.41-1.73-1.34-1.73h-1.27Z"/><path d="M141.4,60h3.62v2.4h-3.62v4.92h4.56v2.4h-7.2v-16.8h7.2v2.4h-4.56v4.68Z"/><path d="M152.33,52.92h2.64v14.4h4.34v2.4h-6.98v-16.8Z"/><path d="M160.35,52.92h2.64v16.8h-2.64v-16.8Z"/><path d="M170.36,64.85h.05l1.78-11.93h3.67v16.8h-2.5v-12.05h-.05l-1.78,12.05h-2.5l-1.92-11.88h-.05v11.88h-2.3v-16.8h3.67l1.92,11.93Z"/><path d="M177.65,52.92h2.64v16.8h-2.64v-16.8Z"/><path d="M181.33,52.92h8.16v2.4h-2.76v14.4h-2.64v-14.4h-2.76v-2.4Z"/><path d="M193.16,60h3.62v2.4h-3.62v4.92h4.56v2.4h-7.2v-16.8h7.2v2.4h-4.56v4.68Z"/><path d="M199.23,52.92h4.18c2.64,0,3.94,1.46,3.94,4.15v8.5c0,2.69-1.3,4.15-3.94,4.15h-4.18v-16.8Zm2.64,2.4v12h1.49c.84,0,1.34-.43,1.34-1.63v-8.74c0-1.2-.5-1.63-1.34-1.63h-1.49Z"/><path d="M213,52.92h8.16v2.4h-2.76v14.4h-2.64v-14.4h-2.76v-2.4Z"/><path d="M221.97,56.95c0-2.69,1.42-4.22,4.01-4.22s4.01,1.54,4.01,4.22v8.74c0,2.69-1.42,4.22-4.01,4.22s-4.01-1.54-4.01-4.22v-8.74Zm2.64,8.9c0,1.2,.53,1.66,1.37,1.66s1.37-.46,1.37-1.66v-9.07c0-1.2-.53-1.66-1.37-1.66s-1.37,.46-1.37,1.66v9.07Z"/><path d="M238.81,64.29v1.56c0,1.2,.53,1.63,1.37,1.63s1.37-.43,1.37-1.63v-3.7c0-1.2-.53-1.66-1.37-1.66s-1.37,.46-1.37,1.66v.5h-2.5l.48-9.74h6.96v2.4h-4.61l-.22,4.01h.05c.48-.79,1.22-1.22,2.28-1.22,1.94,0,2.93,1.37,2.93,3.84v3.74c0,2.69-1.34,4.22-3.94,4.22s-3.94-1.54-3.94-4.22v-1.39h2.5Z"/><path d="M245.6,56.95c0-2.69,1.42-4.22,4.01-4.22s4.01,1.54,4.01,4.22v8.74c0,2.69-1.42,4.22-4.01,4.22s-4.01-1.54-4.01-4.22v-8.74Zm2.64,8.9c0,1.2,.53,1.66,1.37,1.66s1.37-.46,1.37-1.66v-9.07c0-1.2-.53-1.66-1.37-1.66s-1.37,.46-1.37,1.66v9.07Z"/><path d="M254.99,56.95c0-2.69,1.42-4.22,4.01-4.22s4.01,1.54,4.01,4.22v8.74c0,2.69-1.42,4.22-4.01,4.22s-4.01-1.54-4.01-4.22v-8.74Zm2.64,8.9c0,1.2,.53,1.66,1.37,1.66s1.37-.46,1.37-1.66v-9.07c0-1.2-.53-1.66-1.37-1.66s-1.37,.46-1.37,1.66v9.07Z"/><path d="M271.97,52.92v12.96c0,1.2,.53,1.63,1.37,1.63s1.37-.43,1.37-1.63v-12.96h2.5v12.79c0,2.69-1.34,4.22-3.94,4.22s-3.94-1.54-3.94-4.22v-12.79h2.64Z"/><path d="M281.28,57.55h-.05v12.17h-2.38v-16.8h3.31l2.66,10.06h.05v-10.06h2.35v16.8h-2.71l-3.24-12.17Z"/><path d="M288.24,52.92h8.16v2.4h-2.76v14.4h-2.64v-14.4h-2.76v-2.4Z"/><path d="M297.44,52.92h2.64v16.8h-2.64v-16.8Z"/><path d="M301.88,52.92h2.64v14.4h4.34v2.4h-6.98v-16.8Z"/><path d="M318.31,52.72c2.57,0,3.89,1.54,3.89,4.22v.53h-2.5v-.7c0-1.2-.48-1.66-1.32-1.66s-1.32,.46-1.32,1.66,.53,2.14,2.26,3.65c2.21,1.94,2.9,3.34,2.9,5.26,0,2.69-1.34,4.22-3.94,4.22s-3.94-1.54-3.94-4.22v-1.03h2.5v1.2c0,1.2,.53,1.63,1.37,1.63s1.37-.43,1.37-1.63-.53-2.14-2.26-3.65c-2.21-1.94-2.9-3.34-2.9-5.26,0-2.69,1.32-4.22,3.89-4.22Z"/><path d="M323.39,56.95c0-2.69,1.42-4.22,4.01-4.22s4.01,1.54,4.01,4.22v8.74c0,2.69-1.42,4.22-4.01,4.22s-4.01-1.54-4.01-4.22v-8.74Zm2.64,8.9c0,1.2,.53,1.66,1.37,1.66s1.37-.46,1.37-1.66v-9.07c0-1.2-.53-1.66-1.37-1.66s-1.37,.46-1.37,1.66v9.07Z"/><path d="M333,52.92h2.64v14.4h4.34v2.4h-6.98v-16.8Z"/><path d="M341.01,52.92h4.18c2.64,0,3.94,1.46,3.94,4.15v8.5c0,2.69-1.3,4.15-3.94,4.15h-4.18v-16.8Zm2.64,2.4v12h1.49c.84,0,1.34-.43,1.34-1.63v-8.74c0-1.2-.5-1.63-1.34-1.63h-1.49Z"/><path d="M10.99,80.95c0-2.69,1.42-4.22,4.01-4.22s4.01,1.54,4.01,4.22v8.74c0,2.69-1.42,4.22-4.01,4.22s-4.01-1.54-4.01-4.22v-8.74Zm2.64,8.9c0,1.2,.53,1.66,1.37,1.66s1.37-.46,1.37-1.66v-9.07c0-1.2-.53-1.66-1.37-1.66s-1.37,.46-1.37,1.66v9.07Z"/><path d="M23.11,76.92v12.96c0,1.2,.53,1.63,1.37,1.63s1.37-.43,1.37-1.63v-12.96h2.5v12.79c0,2.69-1.34,4.22-3.94,4.22s-3.94-1.54-3.94-4.22v-12.79h2.64Z"/><path d="M29.26,76.92h8.16v2.4h-2.76v14.4h-2.64v-14.4h-2.76v-2.4Z"/><path d="M39.55,91.17v2.54h-2.54v-2.54h2.54Z"/><path d="M46.29,80.95c0-2.69,1.42-4.22,4.01-4.22s4.01,1.54,4.01,4.22v8.74c0,2.69-1.42,4.22-4.01,4.22s-4.01-1.54-4.01-4.22v-8.74Zm2.64,8.9c0,1.2,.53,1.66,1.37,1.66s1.37-.46,1.37-1.66v-9.07c0-1.2-.53-1.66-1.37-1.66s-1.37,.46-1.37,1.66v9.07Z"/><path d="M58.29,81.55h-.05v12.17h-2.38v-16.8h3.31l2.66,10.06h.05v-10.06h2.35v16.8h-2.71l-3.24-12.17Z"/><path d="M73.68,87.45v2.23c0,2.69-1.34,4.22-3.94,4.22s-3.94-1.54-3.94-4.22v-8.74c0-2.69,1.34-4.22,3.94-4.22s3.94,1.54,3.94,4.22v1.63h-2.5v-1.8c0-1.2-.53-1.66-1.37-1.66s-1.37,.46-1.37,1.66v9.07c0,1.2,.53,1.63,1.37,1.63s1.37-.43,1.37-1.63v-2.4h2.5Z"/><path d="M77.8,84h3.62v2.4h-3.62v4.92h4.56v2.4h-7.2v-16.8h7.2v2.4h-4.56v4.68Z"/><path d="M88.26,76.92h8.16v2.4h-2.76v14.4h-2.64v-14.4h-2.76v-2.4Z"/><path d="M100.09,93.72h-2.64v-16.8h2.64v7.2h3v-7.2h2.69v16.8h-2.69v-7.2h-3v7.2Z"/><path d="M110.22,84h3.62v2.4h-3.62v4.92h4.56v2.4h-7.2v-16.8h7.2v2.4h-4.56v4.68Z"/><path d="M118.76,88.15l-3.34-11.23h2.76l1.99,7.66h.05l1.99-7.66h2.52l-3.34,11.23v5.57h-2.64v-5.57Z"/><path d="M139.38,93.72h-2.66l-.46-3.05h-3.24l-.46,3.05h-2.42l2.69-16.8h3.86l2.69,16.8Zm-6.02-5.33h2.54l-1.25-8.5h-.05l-1.25,8.5Z"/><path d="M146,93.72c-.14-.43-.24-.7-.24-2.06v-2.64c0-1.56-.53-2.14-1.73-2.14h-.91v6.84h-2.64v-16.8h3.98c2.74,0,3.91,1.27,3.91,3.86v1.32c0,1.73-.55,2.83-1.73,3.38v.05c1.32,.55,1.75,1.8,1.75,3.55v2.59c0,.82,.02,1.42,.29,2.04h-2.69Zm-2.88-14.4v5.16h1.03c.98,0,1.58-.43,1.58-1.78v-1.66c0-1.2-.41-1.73-1.34-1.73h-1.27Z"/><path d="M152.65,84h3.62v2.4h-3.62v4.92h4.56v2.4h-7.2v-16.8h7.2v2.4h-4.56v4.68Z"/><path d="M167.42,76.72c2.57,0,3.89,1.54,3.89,4.22v.53h-2.5v-.7c0-1.2-.48-1.66-1.32-1.66s-1.32,.46-1.32,1.66,.53,2.14,2.26,3.65c2.21,1.94,2.9,3.34,2.9,5.26,0,2.69-1.34,4.22-3.94,4.22s-3.94-1.54-3.94-4.22v-1.03h2.5v1.2c0,1.2,.53,1.63,1.37,1.63s1.37-.43,1.37-1.63-.53-2.14-2.26-3.65c-2.21-1.94-2.9-3.34-2.9-5.26,0-2.69,1.32-4.22,3.89-4.22Z"/><path d="M172.51,80.95c0-2.69,1.42-4.22,4.01-4.22s4.01,1.54,4.01,4.22v8.74c0,2.69-1.42,4.22-4.01,4.22s-4.01-1.54-4.01-4.22v-8.74Zm2.64,8.9c0,1.2,.53,1.66,1.37,1.66s1.37-.46,1.37-1.66v-9.07c0-1.2-.53-1.66-1.37-1.66s-1.37,.46-1.37,1.66v9.07Z"/><path d="M182.11,76.92h2.64v14.4h4.34v2.4h-6.98v-16.8Z"/><path d="M190.13,76.92h4.18c2.64,0,3.94,1.46,3.94,4.15v8.5c0,2.69-1.3,4.15-3.94,4.15h-4.18v-16.8Zm2.64,2.4v12h1.49c.84,0,1.34-.43,1.34-1.63v-8.74c0-1.2-.5-1.63-1.34-1.63h-1.49Z"/><path d="M204.74,80.95c0-2.69,1.42-4.22,4.01-4.22s4.01,1.54,4.01,4.22v8.74c0,2.69-1.42,4.22-4.01,4.22s-4.01-1.54-4.01-4.22v-8.74Zm2.64,8.9c0,1.2,.53,1.66,1.37,1.66s1.37-.46,1.37-1.66v-9.07c0-1.2-.53-1.66-1.37-1.66s-1.37,.46-1.37,1.66v9.07Z"/><path d="M216.86,76.92v12.96c0,1.2,.53,1.63,1.37,1.63s1.37-.43,1.37-1.63v-12.96h2.5v12.79c0,2.69-1.34,4.22-3.94,4.22s-3.94-1.54-3.94-4.22v-12.79h2.64Z"/><path d="M223,76.92h8.16v2.4h-2.76v14.4h-2.64v-14.4h-2.76v-2.4Z"/><path d="M245.89,93.72h-2.66l-.46-3.05h-3.24l-.46,3.05h-2.42l2.69-16.8h3.86l2.69,16.8Zm-6.02-5.33h2.54l-1.25-8.5h-.05l-1.25,8.5Z"/><path d="M256.11,90.62h.05l1.99-13.71h2.42l-2.59,16.8h-3.94l-2.59-16.8h2.67l1.99,13.71Z"/><path d="M261.44,80.95c0-2.69,1.42-4.22,4.01-4.22s4.01,1.54,4.01,4.22v8.74c0,2.69-1.42,4.22-4.01,4.22s-4.01-1.54-4.01-4.22v-8.74Zm2.64,8.9c0,1.2,.53,1.66,1.37,1.66s1.37-.46,1.37-1.66v-9.07c0-1.2-.53-1.66-1.37-1.66s-1.37,.46-1.37,1.66v9.07Z"/><path d="M270.27,76.92h8.16v2.4h-2.76v14.4h-2.64v-14.4h-2.76v-2.4Z"/><path d="M282.1,84h3.62v2.4h-3.62v4.92h4.56v2.4h-7.2v-16.8h7.2v2.4h-4.56v4.68Z"/><path d="M299.21,84.76h-.05l-.94,8.95h-3.62l-1.87-16.8h2.57l1.39,13.25h.05l1.25-13.25h2.54l1.3,13.34h.05l1.34-13.34h2.3l-1.87,16.8h-3.5l-.94-8.95Z"/><path d="M306.72,76.92h2.64v16.8h-2.64v-16.8Z"/><path d="M311.16,76.92h2.64v14.4h4.34v2.4h-6.98v-16.8Z"/><path d="M319.18,76.92h2.64v14.4h4.34v2.4h-6.98v-16.8Z"/><path d="M340.24,80.78v.6c0,1.73-.53,2.81-1.7,3.36v.05c1.42,.55,1.97,1.8,1.97,3.58v1.37c0,2.59-1.37,3.98-4.01,3.98h-4.15v-16.8h3.98c2.74,0,3.91,1.27,3.91,3.86Zm-5.26-1.46v4.44h1.03c.98,0,1.58-.43,1.58-1.78v-.94c0-1.2-.41-1.73-1.34-1.73h-1.27Zm0,6.84v5.16h1.51c.89,0,1.37-.41,1.37-1.66v-1.46c0-1.56-.5-2.04-1.7-2.04h-1.18Z"/><path d="M344.61,84h3.62v2.4h-3.62v4.92h4.56v2.4h-7.2v-16.8h7.2v2.4h-4.56v4.68Z"/><path d="M19.03,105.07v2.18c0,2.69-1.3,4.15-3.94,4.15h-1.25v6.31h-2.64v-16.8h3.89c2.64,0,3.94,1.46,3.94,4.15Zm-5.18-1.75v5.69h1.25c.84,0,1.3-.38,1.3-1.58v-2.52c0-1.2-.46-1.58-1.3-1.58h-1.25Z"/><path d="M20.14,100.92h2.64v14.4h4.34v2.4h-6.98v-16.8Z"/><path d="M36.7,117.72h-2.66l-.46-3.05h-3.24l-.46,3.05h-2.42l2.69-16.8h3.86l2.69,16.8Zm-6.02-5.33h2.54l-1.25-8.5h-.05l-1.25,8.5Z"/><path d="M45.43,111.45v2.23c0,2.69-1.34,4.22-3.94,4.22s-3.94-1.54-3.94-4.22v-8.74c0-2.69,1.34-4.22,3.94-4.22s3.94,1.54,3.94,4.22v1.63h-2.5v-1.8c0-1.2-.53-1.66-1.37-1.66s-1.37,.46-1.37,1.66v9.07c0,1.2,.53,1.63,1.37,1.63s1.37-.43,1.37-1.63v-2.4h2.5Z"/><path d="M49.56,108h3.62v2.4h-3.62v4.92h4.56v2.4h-7.2v-16.8h7.2v2.4h-4.56v4.68Z"/><path d="M55.63,100.92h4.18c2.64,0,3.94,1.46,3.94,4.15v8.5c0,2.69-1.3,4.15-3.94,4.15h-4.18v-16.8Zm2.64,2.4v12h1.49c.84,0,1.34-.43,1.34-1.63v-8.74c0-1.2-.5-1.63-1.34-1.63h-1.49Z"/><path d="M71.39,100.92h8.16v2.4h-2.76v14.4h-2.64v-14.4h-2.76v-2.4Z"/><path d="M80.36,104.95c0-2.69,1.42-4.22,4.01-4.22s4.01,1.54,4.01,4.22v8.74c0,2.69-1.42,4.22-4.01,4.22s-4.01-1.54-4.01-4.22v-8.74Zm2.64,8.91c0,1.2,.53,1.66,1.37,1.66s1.37-.46,1.37-1.66v-9.07c0-1.2-.53-1.66-1.37-1.66s-1.37,.46-1.37,1.66v9.07Z"/><path d="M96.81,100.92h2.64v16.8h-2.64v-16.8Z"/><path d="M103.65,105.55h-.05v12.17h-2.38v-16.8h3.31l2.66,10.06h.05v-10.06h2.35v16.8h-2.71l-3.24-12.17Z"/><path d="M119.04,111.45v2.23c0,2.69-1.34,4.22-3.94,4.22s-3.94-1.54-3.94-4.22v-8.74c0-2.69,1.34-4.22,3.94-4.22s3.94,1.54,3.94,4.22v1.63h-2.5v-1.8c0-1.2-.53-1.66-1.37-1.66s-1.37,.46-1.37,1.66v9.07c0,1.2,.53,1.63,1.37,1.63s1.37-.43,1.37-1.63v-2.4h2.5Z"/><path d="M120.53,100.92h2.64v14.4h4.34v2.4h-6.98v-16.8Z"/><path d="M131.06,100.92v12.96c0,1.2,.53,1.63,1.37,1.63s1.37-.43,1.37-1.63v-12.96h2.5v12.79c0,2.69-1.34,4.22-3.94,4.22s-3.94-1.54-3.94-4.22v-12.79h2.64Z"/><path d="M137.97,100.92h4.18c2.64,0,3.94,1.46,3.94,4.15v8.5c0,2.69-1.3,4.15-3.94,4.15h-4.18v-16.8Zm2.64,2.4v12h1.49c.84,0,1.34-.43,1.34-1.63v-8.74c0-1.2-.5-1.63-1.34-1.63h-1.49Z"/><path d="M150.29,108h3.62v2.4h-3.62v4.92h4.56v2.4h-7.2v-16.8h7.2v2.4h-4.56v4.68Z"/><path d="M168.78,112.85h.05l1.78-11.93h3.67v16.8h-2.5v-12.05h-.05l-1.78,12.05h-2.5l-1.92-11.88h-.05v11.88h-2.3v-16.8h3.67l1.92,11.93Z"/><path d="M175.86,104.95c0-2.69,1.42-4.22,4.01-4.22s4.01,1.54,4.01,4.22v8.74c0,2.69-1.42,4.22-4.01,4.22s-4.01-1.54-4.01-4.22v-8.74Zm2.64,8.91c0,1.2,.53,1.66,1.37,1.66s1.37-.46,1.37-1.66v-9.07c0-1.2-.53-1.66-1.37-1.66s-1.37,.46-1.37,1.66v9.07Z"/><path d="M190.98,117.72c-.14-.43-.24-.7-.24-2.06v-2.64c0-1.56-.53-2.14-1.73-2.14h-.91v6.84h-2.64v-16.8h3.98c2.74,0,3.91,1.27,3.91,3.86v1.32c0,1.73-.55,2.83-1.73,3.38v.05c1.32,.55,1.75,1.8,1.75,3.55v2.59c0,.82,.02,1.42,.29,2.04h-2.69Zm-2.88-14.4v5.16h1.03c.98,0,1.58-.43,1.58-1.78v-1.66c0-1.2-.41-1.73-1.34-1.73h-1.27Z"/><path d="M197.63,108h3.62v2.4h-3.62v4.92h4.56v2.4h-7.2v-16.8h7.2v2.4h-4.56v4.68Z"/><path d="M216.12,112.85h.05l1.78-11.93h3.67v16.8h-2.5v-12.05h-.05l-1.78,12.05h-2.5l-1.92-11.88h-.05v11.88h-2.3v-16.8h3.67l1.92,11.93Z"/><path d="M226.05,108h3.62v2.4h-3.62v4.92h4.56v2.4h-7.2v-16.8h7.2v2.4h-4.56v4.68Z"/><path d="M237.69,112.85h.05l1.78-11.93h3.67v16.8h-2.5v-12.05h-.05l-1.78,12.05h-2.5l-1.92-11.88h-.05v11.88h-2.3v-16.8h3.67l1.92,11.93Z"/><path d="M252.88,104.78v.6c0,1.73-.53,2.81-1.7,3.36v.05c1.42,.55,1.97,1.8,1.97,3.58v1.37c0,2.59-1.37,3.98-4.01,3.98h-4.15v-16.8h3.98c2.74,0,3.91,1.27,3.91,3.86Zm-5.26-1.46v4.44h1.03c.98,0,1.58-.43,1.58-1.78v-.94c0-1.2-.41-1.73-1.34-1.73h-1.27Zm0,6.84v5.16h1.51c.89,0,1.37-.41,1.37-1.66v-1.46c0-1.56-.5-2.04-1.7-2.04h-1.18Z"/><path d="M257.25,108h3.62v2.4h-3.62v4.92h4.56v2.4h-7.2v-16.8h7.2v2.4h-4.56v4.68Z"/><path d="M268.84,117.72c-.14-.43-.24-.7-.24-2.06v-2.64c0-1.56-.53-2.14-1.73-2.14h-.91v6.84h-2.64v-16.8h3.98c2.74,0,3.91,1.27,3.91,3.86v1.32c0,1.73-.55,2.83-1.73,3.38v.05c1.32,.55,1.75,1.8,1.75,3.55v2.59c0,.82,.02,1.42,.29,2.04h-2.69Zm-2.88-14.4v5.16h1.03c.98,0,1.58-.43,1.58-1.78v-1.66c0-1.2-.41-1.73-1.34-1.73h-1.27Z"/><path d="M276.41,100.72c2.57,0,3.89,1.54,3.89,4.22v.53h-2.5v-.7c0-1.2-.48-1.66-1.32-1.66s-1.32,.46-1.32,1.66,.53,2.14,2.26,3.65c2.21,1.94,2.9,3.34,2.9,5.26,0,2.69-1.34,4.22-3.94,4.22s-3.94-1.54-3.94-4.22v-1.03h2.5v1.2c0,1.2,.53,1.63,1.37,1.63s1.37-.43,1.37-1.63-.53-2.14-2.26-3.65c-2.21-1.94-2.9-3.34-2.9-5.26,0-2.69,1.32-4.22,3.89-4.22Z"/><path d="M288.34,104.95c0-2.69,1.42-4.22,4.01-4.22s4.01,1.54,4.01,4.22v8.74c0,2.69-1.42,4.22-4.01,4.22s-4.01-1.54-4.01-4.22v-8.74Zm2.64,8.91c0,1.2,.53,1.66,1.37,1.66s1.37-.46,1.37-1.66v-9.07c0-1.2-.53-1.66-1.37-1.66s-1.37,.46-1.37,1.66v9.07Z"/><path d="M303.46,117.72c-.14-.43-.24-.7-.24-2.06v-2.64c0-1.56-.53-2.14-1.73-2.14h-.91v6.84h-2.64v-16.8h3.98c2.74,0,3.91,1.27,3.91,3.86v1.32c0,1.73-.55,2.83-1.73,3.38v.05c1.32,.55,1.75,1.8,1.75,3.55v2.59c0,.82,.02,1.42,.29,2.04h-2.69Zm-2.88-14.4v5.16h1.03c.98,0,1.58-.43,1.58-1.78v-1.66c0-1.2-.41-1.73-1.34-1.73h-1.27Z"/><path d="M314.32,100.92h2.64v14.4h4.34v2.4h-6.98v-16.8Z"/><path d="M322.12,104.95c0-2.69,1.42-4.22,4.01-4.22s4.01,1.54,4.01,4.22v8.74c0,2.69-1.42,4.22-4.01,4.22s-4.01-1.54-4.01-4.22v-8.74Zm2.64,8.91c0,1.2,.53,1.66,1.37,1.66s1.37-.46,1.37-1.66v-9.07c0-1.2-.53-1.66-1.37-1.66s-1.37,.46-1.37,1.66v9.07Z"/><path d="M339.38,111.45v2.23c0,2.69-1.34,4.22-3.94,4.22s-3.94-1.54-3.94-4.22v-8.74c0-2.69,1.34-4.22,3.94-4.22s3.94,1.54,3.94,4.22v1.63h-2.5v-1.8c0-1.2-.53-1.66-1.37-1.66s-1.37,.46-1.37,1.66v9.07c0,1.2,.53,1.63,1.37,1.63s1.37-.43,1.37-1.63v-2.4h2.5Z"/><path d="M344.32,111.02l-.82,1.54v5.16h-2.64v-16.8h2.64v7.27h.05l3.41-7.27h2.64l-3.67,7.49,3.67,9.31h-2.71l-2.57-6.7Z"/><path d="M10.44,124.92h8.16v2.4h-2.76v14.4h-2.64v-14.4h-2.76v-2.4Z"/><path d="M22.27,141.72h-2.64v-16.8h2.64v7.2h3v-7.2h2.69v16.8h-2.69v-7.2h-3v7.2Z"/><path d="M32.4,132h3.62v2.4h-3.62v4.92h4.56v2.4h-7.2v-16.8h7.2v2.4h-4.56v4.68Z"/><path d="M50,135.45v2.23c0,2.69-1.34,4.22-3.94,4.22s-3.94-1.54-3.94-4.22v-8.74c0-2.69,1.34-4.22,3.94-4.22s3.94,1.54,3.94,4.22v1.63h-2.5v-1.8c0-1.2-.53-1.66-1.37-1.66s-1.37,.46-1.37,1.66v9.07c0,1.2,.53,1.63,1.37,1.63s1.37-.43,1.37-1.63v-2.4h2.5Z"/><path d="M60.04,141.72h-2.66l-.46-3.05h-3.24l-.46,3.05h-2.42l2.69-16.8h3.86l2.69,16.8Zm-6.02-5.33h2.54l-1.25-8.5h-.05l-1.25,8.5Z"/><path d="M68.96,129.07v2.18c0,2.69-1.3,4.15-3.94,4.15h-1.25v6.31h-2.64v-16.8h3.89c2.64,0,3.94,1.46,3.94,4.15Zm-5.18-1.75v5.69h1.25c.84,0,1.3-.38,1.3-1.58v-2.52c0-1.2-.46-1.58-1.3-1.58h-1.25Z"/><path d="M78.3,141.72h-2.66l-.46-3.05h-3.24l-.46,3.05h-2.42l2.69-16.8h3.86l2.69,16.8Zm-6.02-5.33h2.54l-1.25-8.5h-.05l-1.25,8.5Z"/><path d="M87.04,135.45v2.23c0,2.69-1.34,4.22-3.94,4.22s-3.94-1.54-3.94-4.22v-8.74c0-2.69,1.34-4.22,3.94-4.22s3.94,1.54,3.94,4.22v1.63h-2.5v-1.8c0-1.2-.53-1.66-1.37-1.66s-1.37,.46-1.37,1.66v9.07c0,1.2,.53,1.63,1.37,1.63s1.37-.43,1.37-1.63v-2.4h2.5Z"/><path d="M88.52,124.92h2.64v16.8h-2.64v-16.8Z"/><path d="M92.2,124.92h8.16v2.4h-2.76v14.4h-2.64v-14.4h-2.76v-2.4Z"/><path d="M103.86,136.15l-3.34-11.23h2.76l1.99,7.66h.05l1.99-7.66h2.52l-3.34,11.23v5.57h-2.64v-5.57Z"/><path d="M123.19,141.72h-2.66l-.46-3.05h-3.24l-.46,3.05h-2.42l2.69-16.8h3.86l2.69,16.8Zm-6.02-5.33h2.54l-1.25-8.5h-.05l-1.25,8.5Z"/><path d="M122.61,124.92h8.16v2.4h-2.76v14.4h-2.64v-14.4h-2.76v-2.4Z"/><path d="M138.06,136.29v1.56c0,1.2,.53,1.63,1.37,1.63s1.37-.43,1.37-1.63v-3.7c0-1.2-.53-1.66-1.37-1.66s-1.37,.46-1.37,1.66v.5h-2.5l.48-9.75h6.96v2.4h-4.61l-.22,4.01h.05c.48-.79,1.22-1.22,2.28-1.22,1.94,0,2.93,1.37,2.93,3.84v3.74c0,2.69-1.34,4.22-3.94,4.22s-3.94-1.54-3.94-4.22v-1.39h2.5Z"/><path d="M144.85,128.95c0-2.69,1.42-4.22,4.01-4.22s4.01,1.54,4.01,4.22v8.74c0,2.69-1.42,4.22-4.01,4.22s-4.01-1.54-4.01-4.22v-8.74Zm2.64,8.91c0,1.2,.53,1.66,1.37,1.66s1.37-.46,1.37-1.66v-9.07c0-1.2-.53-1.66-1.37-1.66s-1.37,.46-1.37,1.66v9.07Z"/><path d="M154.23,128.95c0-2.69,1.42-4.22,4.01-4.22s4.01,1.54,4.01,4.22v8.74c0,2.69-1.42,4.22-4.01,4.22s-4.01-1.54-4.01-4.22v-8.74Zm2.64,8.91c0,1.2,.53,1.66,1.37,1.66s1.37-.46,1.37-1.66v-9.07c0-1.2-.53-1.66-1.37-1.66s-1.37,.46-1.37,1.66v9.07Z"/><path d="M166.38,139.17v2.54h-2.54v-2.54h2.54Z"/><path d="M171.29,124.92h8.16v2.4h-2.76v14.4h-2.64v-14.4h-2.76v-2.4Z"/><path d="M183.12,141.72h-2.64v-16.8h2.64v7.2h3v-7.2h2.69v16.8h-2.69v-7.2h-3v7.2Z"/><path d="M193.25,132h3.62v2.4h-3.62v4.92h4.56v2.4h-7.2v-16.8h7.2v2.4h-4.56v4.68Z"/><path d="M201.79,136.15l-3.34-11.23h2.76l1.99,7.66h.05l1.99-7.66h2.52l-3.34,11.23v5.57h-2.64v-5.57Z"/><path d="M221.12,141.72h-2.66l-.46-3.05h-3.24l-.46,3.05h-2.42l2.69-16.8h3.86l2.69,16.8Zm-6.02-5.33h2.54l-1.25-8.5h-.05l-1.25,8.5Z"/><path d="M227.75,141.72c-.14-.43-.24-.7-.24-2.06v-2.64c0-1.56-.53-2.14-1.73-2.14h-.91v6.84h-2.64v-16.8h3.98c2.74,0,3.91,1.27,3.91,3.86v1.32c0,1.73-.55,2.83-1.73,3.38v.05c1.32,.55,1.75,1.8,1.75,3.55v2.59c0,.82,.02,1.42,.29,2.04h-2.69Zm-2.88-14.4v5.16h1.03c.98,0,1.58-.43,1.58-1.78v-1.66c0-1.2-.41-1.73-1.34-1.73h-1.27Z"/><path d="M234.39,132h3.62v2.4h-3.62v4.92h4.56v2.4h-7.2v-16.8h7.2v2.4h-4.56v4.68Z"/><path d="M244.12,128.95c0-2.69,1.42-4.22,4.01-4.22s4.01,1.54,4.01,4.22v8.74c0,2.69-1.42,4.22-4.01,4.22s-4.01-1.54-4.01-4.22v-8.74Zm2.64,8.91c0,1.2,.53,1.66,1.37,1.66s1.37-.46,1.37-1.66v-9.07c0-1.2-.53-1.66-1.37-1.66s-1.37,.46-1.37,1.66v9.07Z"/><path d="M256.27,139.17v2.54h-2.54v-2.54h2.54Z"/><path d="M257.85,128.95c0-2.69,1.42-4.22,4.01-4.22s4.01,1.54,4.01,4.22v8.74c0,2.69-1.42,4.22-4.01,4.22s-4.01-1.54-4.01-4.22v-8.74Zm2.64,8.91c0,1.2,.53,1.66,1.37,1.66s1.37-.46,1.37-1.66v-9.07c0-1.2-.53-1.66-1.37-1.66s-1.37,.46-1.37,1.66v9.07Z"/><path d="M267.24,128.95c0-2.69,1.42-4.22,4.01-4.22s4.01,1.54,4.01,4.22v8.74c0,2.69-1.42,4.22-4.01,4.22s-4.01-1.54-4.01-4.22v-8.74Zm2.64,8.91c0,1.2,.53,1.66,1.37,1.66s1.37-.46,1.37-1.66v-9.07c0-1.2-.53-1.66-1.37-1.66s-1.37,.46-1.37,1.66v9.07Z"/><path d="M279.21,136.29v1.56c0,1.2,.53,1.63,1.37,1.63s1.37-.43,1.37-1.63v-3.7c0-1.2-.53-1.66-1.37-1.66s-1.37,.46-1.37,1.66v.5h-2.5l.48-9.75h6.96v2.4h-4.61l-.22,4.01h.05c.48-.79,1.22-1.22,2.28-1.22,1.94,0,2.93,1.37,2.93,3.84v3.74c0,2.69-1.34,4.22-3.94,4.22s-3.94-1.54-3.94-4.22v-1.39h2.5Z"/><path d="M292.74,132h3.62v2.4h-3.62v4.92h4.56v2.4h-7.2v-16.8h7.2v2.4h-4.56v4.68Z"/><path d="M298.04,124.92h8.16v2.4h-2.76v14.4h-2.64v-14.4h-2.76v-2.4Z"/><path d="M309.87,141.72h-2.64v-16.8h2.64v7.2h3v-7.2h2.69v16.8h-2.69v-7.2h-3v7.2Z"/><path d="M329.78,141.72h-2.66l-.46-3.05h-3.24l-.46,3.05h-2.42l2.69-16.8h3.86l2.69,16.8Zm-6.02-5.33h2.54l-1.25-8.5h-.05l-1.25,8.5Z"/><path d="M333.28,129.55h-.05v12.17h-2.38v-16.8h3.31l2.67,10.06h.05v-10.06h2.35v16.8h-2.71l-3.24-12.17Z"/><path d="M341.01,124.92h4.18c2.64,0,3.94,1.46,3.94,4.15v8.5c0,2.69-1.3,4.15-3.94,4.15h-4.18v-16.8Zm2.64,2.4v12h1.49c.84,0,1.34-.43,1.34-1.63v-8.74c0-1.2-.5-1.63-1.34-1.63h-1.49Z"/><path d="M19.75,165.72h-2.66l-.46-3.05h-3.24l-.46,3.05h-2.42l2.69-16.8h3.86l2.69,16.8Zm-6.02-5.33h2.54l-1.25-8.5h-.05l-1.25,8.5Z"/><path d="M24.22,162.62h.05l1.99-13.71h2.42l-2.59,16.8h-3.94l-2.59-16.8h2.66l1.99,13.71Z"/><path d="M37.73,165.72h-2.66l-.46-3.05h-3.24l-.46,3.05h-2.42l2.69-16.8h3.86l2.69,16.8Zm-6.02-5.33h2.54l-1.25-8.5h-.05l-1.25,8.5Z"/><path d="M38.83,148.92h2.64v16.8h-2.64v-16.8Z"/><path d="M43.27,148.92h2.64v14.4h4.34v2.4h-6.98v-16.8Z"/><path d="M59.83,165.72h-2.66l-.46-3.05h-3.24l-.46,3.05h-2.42l2.69-16.8h3.86l2.69,16.8Zm-6.02-5.33h2.54l-1.25-8.5h-.05l-1.25,8.5Z"/><path d="M68.83,152.78v.6c0,1.73-.53,2.81-1.7,3.36v.05c1.42,.55,1.97,1.8,1.97,3.58v1.37c0,2.59-1.37,3.98-4.01,3.98h-4.15v-16.8h3.98c2.74,0,3.91,1.27,3.91,3.86Zm-5.26-1.46v4.44h1.03c.98,0,1.58-.43,1.58-1.78v-.94c0-1.2-.41-1.73-1.34-1.73h-1.27Zm0,6.84v5.16h1.51c.89,0,1.37-.41,1.37-1.66v-1.46c0-1.56-.5-2.04-1.7-2.04h-1.18Z"/><path d="M70.56,148.92h2.64v14.4h4.34v2.4h-6.98v-16.8Z"/><path d="M81.22,156h3.62v2.4h-3.62v4.92h4.56v2.4h-7.2v-16.8h7.2v2.4h-4.56v4.68Z"/><path d="M99.13,152.95c0-2.69,1.42-4.22,4.01-4.22s4.01,1.54,4.01,4.22v8.74c0,2.69-1.42,4.22-4.01,4.22s-4.01-1.54-4.01-4.22v-8.74Zm2.64,8.91c0,1.2,.53,1.66,1.37,1.66s1.37-.46,1.37-1.66v-9.07c0-1.2-.53-1.66-1.37-1.66s-1.37,.46-1.37,1.66v9.07Z"/><path d="M111.13,153.55h-.05v12.17h-2.38v-16.8h3.31l2.66,10.06h.05v-10.06h2.35v16.8h-2.71l-3.24-12.17Z"/><path d="M130.71,152.95c0-2.69,1.42-4.22,4.01-4.22s4.01,1.54,4.01,4.22v8.74c0,2.69-1.42,4.22-4.01,4.22s-4.01-1.54-4.01-4.22v-8.74Zm2.64,8.91c0,1.2,.53,1.66,1.37,1.66s1.37-.46,1.37-1.66v-9.07c0-1.2-.53-1.66-1.37-1.66s-1.37,.46-1.37,1.66v9.07Z"/><path d="M142.83,148.92v12.96c0,1.2,.53,1.63,1.37,1.63s1.37-.43,1.37-1.63v-12.96h2.5v12.79c0,2.69-1.34,4.22-3.94,4.22s-3.94-1.54-3.94-4.22v-12.79h2.64Z"/><path d="M155.26,165.72c-.14-.43-.24-.7-.24-2.06v-2.64c0-1.56-.53-2.14-1.73-2.14h-.91v6.84h-2.64v-16.8h3.98c2.74,0,3.91,1.27,3.91,3.86v1.32c0,1.73-.55,2.83-1.73,3.38v.05c1.32,.55,1.75,1.8,1.75,3.55v2.59c0,.82,.02,1.42,.29,2.04h-2.69Zm-2.88-14.4v5.16h1.03c.98,0,1.58-.43,1.58-1.78v-1.66c0-1.2-.41-1.73-1.34-1.73h-1.27Z"/><path d="M171.11,152.95c0-2.69,1.42-4.22,4.01-4.22s4.01,1.54,4.01,4.22v8.74c0,2.69-1.42,4.22-4.01,4.22s-4.01-1.54-4.01-4.22v-8.74Zm2.64,8.91c0,1.2,.53,1.66,1.37,1.66s1.37-.46,1.37-1.66v-9.07c0-1.2-.53-1.66-1.37-1.66s-1.37,.46-1.37,1.66v9.07Z"/><path d="M186.59,156.76h-.05l-.94,8.95h-3.62l-1.87-16.8h2.57l1.39,13.25h.05l1.25-13.25h2.54l1.3,13.35h.05l1.34-13.35h2.3l-1.87,16.8h-3.5l-.94-8.95Z"/><path d="M196.5,153.55h-.05v12.17h-2.38v-16.8h3.31l2.66,10.06h.05v-10.06h2.35v16.8h-2.71l-3.24-12.17Z"/><path d="M221.86,160.85h.05l1.78-11.93h3.67v16.8h-2.5v-12.05h-.05l-1.78,12.05h-2.5l-1.92-11.88h-.05v11.88h-2.3v-16.8h3.67l1.92,11.93Z"/><path d="M237.7,165.72h-2.66l-.46-3.05h-3.24l-.46,3.05h-2.42l2.69-16.8h3.86l2.69,16.8Zm-6.02-5.33h2.54l-1.25-8.5h-.05l-1.25,8.5Z"/><path d="M244.33,165.72c-.14-.43-.24-.7-.24-2.06v-2.64c0-1.56-.53-2.14-1.73-2.14h-.91v6.84h-2.64v-16.8h3.98c2.74,0,3.91,1.27,3.91,3.86v1.32c0,1.73-.55,2.83-1.73,3.38v.05c1.32,.55,1.75,1.8,1.75,3.55v2.59c0,.82,.02,1.42,.29,2.04h-2.69Zm-2.88-14.4v5.16h1.03c.98,0,1.58-.43,1.58-1.78v-1.66c0-1.2-.41-1.73-1.34-1.73h-1.27Z"/><path d="M251.79,159.02l-.82,1.54v5.16h-2.64v-16.8h2.64v7.27h.05l3.41-7.27h2.64l-3.67,7.49,3.67,9.31h-2.71l-2.57-6.7Z"/><path d="M260.79,156h3.62v2.4h-3.62v4.92h4.56v2.4h-7.2v-16.8h7.2v2.4h-4.56v4.68Z"/><path d="M266.09,148.92h8.16v2.4h-2.76v14.4h-2.64v-14.4h-2.76v-2.4Z"/><path d="M283.11,153.07v2.18c0,2.69-1.3,4.15-3.94,4.15h-1.25v6.31h-2.64v-16.8h3.89c2.64,0,3.94,1.46,3.94,4.15Zm-5.18-1.75v5.69h1.25c.84,0,1.3-.38,1.3-1.58v-2.52c0-1.2-.46-1.58-1.3-1.58h-1.25Z"/><path d="M284.21,148.92h2.64v14.4h4.34v2.4h-6.98v-16.8Z"/><path d="M300.77,165.72h-2.66l-.46-3.05h-3.24l-.46,3.05h-2.42l2.69-16.8h3.86l2.69,16.8Zm-6.02-5.33h2.54l-1.25-8.5h-.05l-1.25,8.5Z"/><path d="M309.51,159.45v2.23c0,2.69-1.34,4.22-3.94,4.22s-3.94-1.54-3.94-4.22v-8.74c0-2.69,1.34-4.22,3.94-4.22s3.94,1.54,3.94,4.22v1.63h-2.5v-1.8c0-1.2-.53-1.66-1.37-1.66s-1.37,.46-1.37,1.66v9.07c0,1.2,.53,1.63,1.37,1.63s1.37-.43,1.37-1.63v-2.4h2.5Z"/><path d="M313.64,156h3.62v2.4h-3.62v4.92h4.56v2.4h-7.2v-16.8h7.2v2.4h-4.56v4.68Z"/><path d="M331.55,152.95c0-2.69,1.42-4.22,4.01-4.22s4.01,1.54,4.01,4.22v8.74c0,2.69-1.42,4.22-4.01,4.22s-4.01-1.54-4.01-4.22v-8.74Zm2.64,8.91c0,1.2,.53,1.66,1.37,1.66s1.37-.46,1.37-1.66v-9.07c0-1.2-.53-1.66-1.37-1.66s-1.37,.46-1.37,1.66v9.07Z"/><path d="M346.67,165.72c-.14-.43-.24-.7-.24-2.06v-2.64c0-1.56-.53-2.14-1.73-2.14h-.91v6.84h-2.64v-16.8h3.98c2.74,0,3.91,1.27,3.91,3.86v1.32c0,1.73-.55,2.83-1.73,3.38v.05c1.32,.55,1.75,1.8,1.75,3.55v2.59c0,.82,.02,1.42,.29,2.04h-2.69Zm-2.88-14.4v5.16h1.03c.98,0,1.58-.43,1.58-1.78v-1.66c0-1.2-.41-1.73-1.34-1.73h-1.27Z"/><path d="M16.73,189.72c-.14-.43-.24-.7-.24-2.06v-2.64c0-1.56-.53-2.14-1.73-2.14h-.91v6.84h-2.64v-16.8h3.98c2.74,0,3.91,1.27,3.91,3.86v1.32c0,1.73-.55,2.83-1.73,3.38v.05c1.32,.55,1.75,1.8,1.75,3.55v2.59c0,.82,.02,1.42,.29,2.04h-2.69Zm-2.88-14.4v5.16h1.03c.98,0,1.58-.43,1.58-1.78v-1.66c0-1.2-.41-1.73-1.34-1.73h-1.27Z"/><path d="M29.28,189.72h-2.66l-.46-3.05h-3.24l-.46,3.05h-2.42l2.69-16.8h3.86l2.69,16.8Zm-6.02-5.33h2.54l-1.25-8.5h-.05l-1.25,8.5Z"/><path d="M35.9,189.72c-.14-.43-.24-.7-.24-2.06v-2.64c0-1.56-.53-2.14-1.73-2.14h-.91v6.84h-2.64v-16.8h3.98c2.74,0,3.91,1.27,3.91,3.86v1.32c0,1.73-.55,2.83-1.73,3.38v.05c1.32,.55,1.75,1.8,1.75,3.55v2.59c0,.82,.02,1.42,.29,2.04h-2.69Zm-2.88-14.4v5.16h1.03c.98,0,1.58-.43,1.58-1.78v-1.66c0-1.2-.41-1.73-1.34-1.73h-1.27Z"/><path d="M39.91,172.92h2.64v16.8h-2.64v-16.8Z"/><path d="M52.25,176.78v.6c0,1.73-.53,2.81-1.7,3.36v.05c1.42,.55,1.97,1.8,1.97,3.58v1.37c0,2.59-1.37,3.98-4.01,3.98h-4.15v-16.8h3.98c2.74,0,3.91,1.27,3.91,3.86Zm-5.26-1.46v4.44h1.03c.98,0,1.58-.43,1.58-1.78v-.94c0-1.2-.41-1.73-1.34-1.73h-1.27Zm0,6.84v5.16h1.51c.89,0,1.37-.41,1.37-1.66v-1.46c0-1.56-.5-2.04-1.7-2.04h-1.18Z"/><path d="M53.98,172.92h2.64v14.4h4.34v2.4h-6.98v-16.8Z"/><path d="M64.63,180h3.62v2.4h-3.62v4.92h4.56v2.4h-7.2v-16.8h7.2v2.4h-4.56v4.68Z"/><path d="M73.25,187.17v2.54h-2.54v-2.54h2.54Z"/><path d="M82.47,183.45v2.23c0,2.69-1.34,4.22-3.94,4.22s-3.94-1.54-3.94-4.22v-8.74c0-2.69,1.34-4.22,3.94-4.22s3.94,1.54,3.94,4.22v1.63h-2.5v-1.8c0-1.2-.53-1.66-1.37-1.66s-1.37,.46-1.37,1.66v9.07c0,1.2,.53,1.63,1.37,1.63s1.37-.43,1.37-1.63v-2.4h2.5Z"/><path d="M83.74,176.95c0-2.69,1.42-4.22,4.01-4.22s4.01,1.54,4.01,4.22v8.74c0,2.69-1.42,4.22-4.01,4.22s-4.01-1.54-4.01-4.22v-8.74Zm2.64,8.91c0,1.2,.53,1.66,1.37,1.66s1.37-.46,1.37-1.66v-9.07c0-1.2-.53-1.66-1.37-1.66s-1.37,.46-1.37,1.66v9.07Z"/><path d="M98.91,184.85h.05l1.78-11.93h3.67v16.8h-2.5v-12.05h-.05l-1.78,12.05h-2.5l-1.92-11.88h-.05v11.88h-2.3v-16.8h3.67l1.92,11.93Z"/></g></svg>