{
    "asset" : {
        "generator" : "Khronos glTF Blender I/O v1.7.33",
        "version" : "2.0"
    },
    "scene" : 0,
    "scenes" : [
        {
            "name" : "Scene",
            "nodes" : [
                0,
                1,
                2,
                3
            ]
        }
    ],
    "nodes" : [
        {
            "mesh" : 0,
            "name" : "Robot",
            "rotation" : [
                0,
                0,
                0,
                -1
            ]
        },
        {
            "mesh" : 1,
            "name" : "Sphere",
            "scale" : [
                0.03327636048197746,
                0.030569905415177345,
                0.028864385560154915
            ],
            "translation" : [
                0.4602227807044983,
                0.5909450650215149,
                -0.22465378046035767
            ]
        },
        {
            "mesh" : 2,
            "name" : "Sphere.001",
            "scale" : [
                0.02565096504986286,
                0.05088582634925842,
                0.03952973335981369
            ],
            "translation" : [
                0.4797213077545166,
                0.5959077477455139,
                -0.060334011912345886
            ]
        },
        {
            "mesh" : 3,
            "name" : "Cylinder",
            "rotation" : [
                -0.8080245852470398,
                0.02762584760785103,
                0.03801027312874794,
                0.5872718691825867
            ],
            "scale" : [
                0.0018566864309832454,
                0.07201436907052994,
                0.00158867915160954
            ],
            "translation" : [
                0.4682718515396118,
                0.5144548416137695,
                -0.1296200305223465
            ]
        }
    ],
    "materials" : [
        {
            "doubleSided" : true,
            "name" : "Carbon Fibre",
            "pbrMetallicRoughness" : {}
        },
        {
            "doubleSided" : true,
            "emissiveFactor" : [
                1,
                0.9274543523788452,
                0
            ],
            "name" : "Material.002",
            "pbrMetallicRoughness" : {}
        },
        {
            "doubleSided" : true,
            "emissiveFactor" : [
                0.046199142932891846,
                1,
                0
            ],
            "name" : "Material.005",
            "pbrMetallicRoughness" : {}
        },
        {
            "doubleSided" : true,
            "emissiveFactor" : [
                0,
                1,
                1
            ],
            "name" : "Material.004",
            "pbrMetallicRoughness" : {}
        }
    ],
    "meshes" : [
        {
            "name" : "Robot",
            "primitives" : [
                {
                    "attributes" : {
                        "POSITION" : 0,
                        "NORMAL" : 1,
                        "TEXCOORD_0" : 2,
                        "TEXCOORD_1" : 3,
                        "TEXCOORD_2" : 4
                    },
                    "indices" : 5,
                    "material" : 0
                }
            ]
        },
        {
            "name" : "Sphere",
            "primitives" : [
                {
                    "attributes" : {
                        "POSITION" : 6,
                        "NORMAL" : 7,
                        "TEXCOORD_0" : 8
                    },
                    "indices" : 9,
                    "material" : 1
                }
            ]
        },
        {
            "name" : "Sphere.001",
            "primitives" : [
                {
                    "attributes" : {
                        "POSITION" : 10,
                        "NORMAL" : 11,
                        "TEXCOORD_0" : 12,
                        "TEXCOORD_1" : 13
                    },
                    "indices" : 9,
                    "material" : 2
                }
            ]
        },
        {
            "name" : "Cylinder",
            "primitives" : [
                {
                    "attributes" : {
                        "POSITION" : 14,
                        "NORMAL" : 15,
                        "TEXCOORD_0" : 16
                    },
                    "indices" : 17,
                    "material" : 3
                }
            ]
        }
    ],
    "accessors" : [
        {
            "bufferView" : 0,
            "componentType" : 5126,
            "count" : 3909,
            "max" : [
                0.5080000162124634,
                0.6603999733924866,
                0.06667499989271164
            ],
            "min" : [
                0.1777999997138977,
                0.3301999866962433,
                -0.325437992811203
            ],
            "type" : "VEC3"
        },
        {
            "bufferView" : 1,
            "componentType" : 5126,
            "count" : 3909,
            "type" : "VEC3"
        },
        {
            "bufferView" : 2,
            "componentType" : 5126,
            "count" : 3909,
            "type" : "VEC2"
        },
        {
            "bufferView" : 3,
            "componentType" : 5126,
            "count" : 3909,
            "type" : "VEC2"
        },
        {
            "bufferView" : 4,
            "componentType" : 5126,
            "count" : 3909,
            "type" : "VEC2"
        },
        {
            "bufferView" : 5,
            "componentType" : 5123,
            "count" : 6294,
            "type" : "SCALAR"
        },
        {
            "bufferView" : 6,
            "componentType" : 5126,
            "count" : 2838,
            "max" : [
                0.9999997019767761,
                1,
                0.9999994039535522
            ],
            "min" : [
                -0.9999990463256836,
                -1,
                -0.9999987483024597
            ],
            "type" : "VEC3"
        },
        {
            "bufferView" : 7,
            "componentType" : 5126,
            "count" : 2838,
            "type" : "VEC3"
        },
        {
            "bufferView" : 8,
            "componentType" : 5126,
            "count" : 2838,
            "type" : "VEC2"
        },
        {
            "bufferView" : 9,
            "componentType" : 5123,
            "count" : 2880,
            "type" : "SCALAR"
        },
        {
            "bufferView" : 10,
            "componentType" : 5126,
            "count" : 2838,
            "max" : [
                0.9999997019767761,
                1,
                0.9999994039535522
            ],
            "min" : [
                -0.9999990463256836,
                -1,
                -0.9999987483024597
            ],
            "type" : "VEC3"
        },
        {
            "bufferView" : 11,
            "componentType" : 5126,
            "count" : 2838,
            "type" : "VEC3"
        },
        {
            "bufferView" : 12,
            "componentType" : 5126,
            "count" : 2838,
            "type" : "VEC2"
        },
        {
            "bufferView" : 13,
            "componentType" : 5126,
            "count" : 2838,
            "type" : "VEC2"
        },
        {
            "bufferView" : 14,
            "componentType" : 5126,
            "count" : 268,
            "max" : [
                1,
                1,
                1
            ],
            "min" : [
                -1,
                -1,
                -1
            ],
            "type" : "VEC3"
        },
        {
            "bufferView" : 15,
            "componentType" : 5126,
            "count" : 268,
            "type" : "VEC3"
        },
        {
            "bufferView" : 16,
            "componentType" : 5126,
            "count" : 268,
            "type" : "VEC2"
        },
        {
            "bufferView" : 17,
            "componentType" : 5123,
            "count" : 372,
            "type" : "SCALAR"
        }
    ],
    "bufferViews" : [
        {
            "buffer" : 0,
            "byteLength" : 46908,
            "byteOffset" : 0
        },
        {
            "buffer" : 0,
            "byteLength" : 46908,
            "byteOffset" : 46908
        },
        {
            "buffer" : 0,
            "byteLength" : 31272,
            "byteOffset" : 93816
        },
        {
            "buffer" : 0,
            "byteLength" : 31272,
            "byteOffset" : 125088
        },
        {
            "buffer" : 0,
            "byteLength" : 31272,
            "byteOffset" : 156360
        },
        {
            "buffer" : 0,
            "byteLength" : 12588,
            "byteOffset" : 187632
        },
        {
            "buffer" : 0,
            "byteLength" : 34056,
            "byteOffset" : 200220
        },
        {
            "buffer" : 0,
            "byteLength" : 34056,
            "byteOffset" : 234276
        },
        {
            "buffer" : 0,
            "byteLength" : 22704,
            "byteOffset" : 268332
        },
        {
            "buffer" : 0,
            "byteLength" : 5760,
            "byteOffset" : 291036
        },
        {
            "buffer" : 0,
            "byteLength" : 34056,
            "byteOffset" : 296796
        },
        {
            "buffer" : 0,
            "byteLength" : 34056,
            "byteOffset" : 330852
        },
        {
            "buffer" : 0,
            "byteLength" : 22704,
            "byteOffset" : 364908
        },
        {
            "buffer" : 0,
            "byteLength" : 22704,
            "byteOffset" : 387612
        },
        {
            "buffer" : 0,
            "byteLength" : 3216,
            "byteOffset" : 410316
        },
        {
            "buffer" : 0,
            "byteLength" : 3216,
            "byteOffset" : 413532
        },
        {
            "buffer" : 0,
            "byteLength" : 2144,
            "byteOffset" : 416748
        },
        {
            "buffer" : 0,
            "byteLength" : 744,
            "byteOffset" : 418892
        }
    ],
    "buffers" : [
        {
            "byteLength" : 419636,
            "uri" : "data:application/octet-stream;base64,"
        }
    ]
}
